<?xml version="1.0" encoding="UTF-8" standalone="no"?>
<!-- Created with Inkscape (http://www.inkscape.org/) -->

<svg
   xmlns:dc="http://purl.org/dc/elements/1.1/"
   xmlns:cc="http://creativecommons.org/ns#"
   xmlns:rdf="http://www.w3.org/1999/02/22-rdf-syntax-ns#"
   xmlns:svg="http://www.w3.org/2000/svg"
   xmlns="http://www.w3.org/2000/svg"
   xmlns:sodipodi="http://sodipodi.sourceforge.net/DTD/sodipodi-0.dtd"
   xmlns:inkscape="http://www.inkscape.org/namespaces/inkscape"
   version="1.1"
   id="svg7019"
   xml:space="preserve"
   width="668.46667"
   height="577.66663"
   viewBox="0 0 668.46667 577.66661"
   sodipodi:docname="movies-erd.svg"
   inkscape:version="0.92.2 (5c3e80d, 2017-08-06)"><metadata
     id="metadata7025"><rdf:RDF><cc:Work
         rdf:about=""><dc:format>image/svg+xml</dc:format><dc:type
           rdf:resource="http://purl.org/dc/dcmitype/StillImage" /><dc:title></dc:title></cc:Work></rdf:RDF></metadata><defs
     id="defs7023"><clipPath
       clipPathUnits="userSpaceOnUse"
       id="clipPath7035"><path
         d="M 0,0 H 595.2 V 841.8 H 0 Z"
         id="path7033"
         inkscape:connector-curvature="0"
         style="clip-rule:evenodd" /></clipPath></defs><sodipodi:namedview
     pagecolor="#ffffff"
     bordercolor="#666666"
     borderopacity="1"
     objecttolerance="10"
     gridtolerance="10"
     guidetolerance="10"
     inkscape:pageopacity="0"
     inkscape:pageshadow="2"
     inkscape:window-width="1920"
     inkscape:window-height="1137"
     id="namedview7021"
     showgrid="false"
     fit-margin-top="3"
     fit-margin-left="3"
     fit-margin-right="3"
     fit-margin-bottom="3"
     inkscape:zoom="0.74654598"
     inkscape:cx="320.99815"
     inkscape:cy="285.14097"
     inkscape:window-x="1200"
     inkscape:window-y="0"
     inkscape:window-maximized="1"
     inkscape:current-layer="g7031" /><g
     id="g7027"
     inkscape:groupmode="layer"
     inkscape:label="movies-erd"
     transform="matrix(1.3333333,0,0,-1.3333333,-75.833331,853.76665)"><g
       id="g7029"><g
         id="g7031"
         clip-path="url(#clipPath7035)"><path
           d="m 272.1,436.4 h -45.3 v 45.4 h 90.7 v -45.4 z"
           style="fill:#ffffff;fill-opacity:1;fill-rule:evenodd;stroke:none;stroke-width:0.75;stroke-miterlimit:10;stroke-dasharray:none"
           id="path7039"
           inkscape:connector-curvature="0" /><g
           id="g7041"
           style="stroke-width:0.75;stroke-miterlimit:10;stroke-dasharray:none"><path
             d="m 272.1,436.4 h -45.3 v 45.4 h 90.7 v -45.4 z"
             style="fill:none;stroke:#000000;stroke-width:0.75;stroke-linecap:butt;stroke-linejoin:round;stroke-miterlimit:10;stroke-dasharray:none;stroke-opacity:1"
             id="path7043"
             inkscape:connector-curvature="0" /></g><g
           id="g7045"
           style="stroke-width:0.75;stroke-miterlimit:10;stroke-dasharray:none"><text
             transform="matrix(1,0,0,-1,256.1,454.9)"
             style="font-variant:normal;font-weight:normal;font-size:12px;font-family:'Liberation Sans';-inkscape-font-specification:LiberationSans;writing-mode:lr-tb;fill:#000000;fill-opacity:1;fill-rule:nonzero;stroke:none;stroke-width:0.75;stroke-miterlimit:10;stroke-dasharray:none"
             id="text7049"><tspan
               x="0 9.9960003 16.68 22.68 25.284"
               y="0"
               sodipodi:role="line"
               id="tspan7047">Movie</tspan></text>
</g><path
           d="m 272.1,609.4 h -39.7 v 28.3 h 79.4 v -28.3 z"
           style="fill:#ffffff;fill-opacity:1;fill-rule:evenodd;stroke:none;stroke-width:0.75;stroke-miterlimit:10;stroke-dasharray:none"
           id="path7051"
           inkscape:connector-curvature="0" /><g
           id="g7053"
           style="stroke-width:0.75;stroke-miterlimit:10;stroke-dasharray:none"><path
             d="m 272.1,609.4 h -39.7 v 28.3 h 79.4 v -28.3 z"
             style="fill:none;stroke:#000000;stroke-width:0.75;stroke-linecap:butt;stroke-linejoin:round;stroke-miterlimit:10;stroke-dasharray:none;stroke-opacity:1"
             id="path7055"
             inkscape:connector-curvature="0" /></g><g
           id="g7057"
           style="stroke-width:0.75;stroke-miterlimit:10;stroke-dasharray:none"><text
             transform="matrix(1,0,0,-1,245.7,619.3)"
             style="font-variant:normal;font-weight:normal;font-size:12px;font-family:'Liberation Sans';-inkscape-font-specification:LiberationSans;writing-mode:lr-tb;fill:#000000;fill-opacity:1;fill-rule:nonzero;stroke:none;stroke-width:0.75;stroke-miterlimit:10;stroke-dasharray:none"
             id="text7061"><tspan
               x="0 8.6879997 15.372 17.976 20.664 27.348 33.348 36.647999 39.335999 46.02"
               y="0"
               sodipodi:role="line"
               id="tspan7059">Collection</tspan></text>
</g><path
           d="m 272.1,594.5 v -2.2 -93.5 -0.6"
           style="fill:none;stroke:#000000;stroke-width:0.75;stroke-linecap:butt;stroke-linejoin:miter;stroke-miterlimit:10;stroke-dasharray:none;stroke-opacity:1"
           id="path7063"
           inkscape:connector-curvature="0" /><path
           d="m 268.1,597.9 v 0 c 0,0.8 0.2,1.4 0.6,2 0.3,0.7 0.8,1.1 1.4,1.5 0.7,0.4 1.3,0.5 2,0.5 0.8,0 1.4,-0.1 2,-0.5 0.7,-0.4 1.1,-0.8 1.5,-1.5 0.4,-0.6 0.5,-1.2 0.5,-2 0,-0.7 -0.1,-1.3 -0.5,-1.9 -0.4,-0.7 -0.8,-1.2 -1.5,-1.5 -0.6,-0.4 -1.2,-0.6 -2,-0.6 -0.7,0 -1.3,0.2 -2,0.6 -0.6,0.3 -1.1,0.8 -1.4,1.4 -0.4,0.7 -0.6,1.3 -0.6,2 z m 0.4,0 v 0 c 0,0.7 0.2,1.3 0.5,1.8 0.3,0.6 0.8,1 1.3,1.3 0.6,0.4 1.2,0.5 1.8,0.5 0.7,0 1.2,-0.1 1.8,-0.5 0.6,-0.3 1,-0.7 1.3,-1.3 0.4,-0.5 0.5,-1.1 0.5,-1.8 0,-0.6 -0.1,-1.2 -0.5,-1.8 -0.3,-0.5 -0.7,-0.9 -1.3,-1.3 -0.6,-0.3 -1.1,-0.5 -1.8,-0.5 -0.6,0 -1.2,0.2 -1.8,0.5 -0.5,0.4 -1,0.8 -1.3,1.3 -0.3,0.6 -0.5,1.2 -0.5,1.8 z m 3.6,4 h 0.3 v 7.5 h -0.5 v -7.5 z m 0.3,3.7 v -0.2 h 4 v 0.5 h -4 z m -0.5,0 v -0.2 h -4 v 0.5 h 4 z"
           style="fill:#000000;fill-opacity:1;fill-rule:evenodd;stroke:none;stroke-width:0.75;stroke-miterlimit:10;stroke-dasharray:none"
           id="path7065"
           inkscape:connector-curvature="0" /><path
           d="m 276.4,494.6 v 0 c 0,-0.8 -0.2,-1.5 -0.6,-2.2 -0.4,-0.7 -0.9,-1.1 -1.5,-1.5 -0.7,-0.4 -1.4,-0.6 -2.2,-0.6 -0.8,0 -1.4,0.2 -2.1,0.6 -0.7,0.4 -1.2,0.8 -1.6,1.5 -0.4,0.7 -0.5,1.4 -0.5,2.2 0,0.7 0.1,1.4 0.5,2.1 0.4,0.7 0.9,1.1 1.6,1.5 0.7,0.4 1.3,0.6 2.1,0.6 0.8,0 1.5,-0.2 2.2,-0.6 0.6,-0.4 1.1,-0.8 1.5,-1.5 0.4,-0.7 0.6,-1.4 0.6,-2.1 z m -0.4,0 v 0 c 0,-0.8 -0.2,-1.3 -0.6,-1.9 -0.3,-0.7 -0.8,-1.1 -1.3,-1.5 -0.7,-0.3 -1.3,-0.5 -2,-0.5 -0.7,0 -1.3,0.2 -1.9,0.5 -0.6,0.4 -1,0.8 -1.4,1.4 -0.3,0.7 -0.5,1.2 -0.5,2 0,0.7 0.2,1.3 0.5,1.9 0.4,0.6 0.8,1 1.4,1.4 0.6,0.3 1.2,0.5 1.9,0.5 0.7,0 1.3,-0.2 2,-0.5 0.5,-0.4 1,-0.8 1.3,-1.4 0.4,-0.6 0.6,-1.2 0.6,-1.9 z m -3.9,-4.3 -4.2,-7.9 v -0.6 h 0.3 l 3.6,6.8 v -6.8 h 0.6 v 6.8 l 3.7,-6.8 h 0.3 v 0.6 z"
           style="fill:#000000;fill-opacity:1;fill-rule:evenodd;stroke:none;stroke-width:0.75;stroke-miterlimit:10;stroke-dasharray:none"
           id="path7067"
           inkscape:connector-curvature="0" /><path
           d="m 403.9,442.1 h -34 v 34 H 438 v -34 z"
           style="fill:#ffffff;fill-opacity:1;fill-rule:evenodd;stroke:none;stroke-width:0.75;stroke-miterlimit:10;stroke-dasharray:none"
           id="path7069"
           inkscape:connector-curvature="0" /><g
           id="g7071"
           style="stroke-width:0.75;stroke-miterlimit:10;stroke-dasharray:none"><path
             d="m 403.9,442.1 h -34 v 34 H 438 v -34 z"
             style="fill:none;stroke:#000000;stroke-width:0.75;stroke-linecap:butt;stroke-linejoin:round;stroke-miterlimit:10;stroke-dasharray:none;stroke-opacity:1"
             id="path7073"
             inkscape:connector-curvature="0" /></g><g
           id="g7075"
           style="stroke-width:0.75;stroke-miterlimit:10;stroke-dasharray:none"><text
             transform="matrix(1,0,0,-1,383.8,454.9)"
             style="font-variant:normal;font-weight:normal;font-size:12px;font-family:'Liberation Sans';-inkscape-font-specification:LiberationSans;writing-mode:lr-tb;fill:#000000;fill-opacity:1;fill-rule:nonzero;stroke:none;stroke-width:0.75;stroke-miterlimit:10;stroke-dasharray:none"
             id="text7079"><tspan
               x="0 9.3839998 16.068001 22.752001 29.436001 36.228001"
               y="0"
               sodipodi:role="line"
               id="tspan7077">Gender</tspan></text>
</g><path
           d="m 521.6,418 h -34 v 82.2 h 68 V 418 Z"
           style="fill:#ffffff;fill-opacity:1;fill-rule:evenodd;stroke:none;stroke-width:0.75;stroke-miterlimit:10;stroke-dasharray:none"
           id="path7081"
           inkscape:connector-curvature="0" /><g
           id="g7083"
           style="stroke-width:0.75;stroke-miterlimit:10;stroke-dasharray:none"><path
             d="m 521.6,418 h -34 v 82.2 h 68 V 418 Z"
             style="fill:none;stroke:#000000;stroke-width:0.75;stroke-linecap:butt;stroke-linejoin:round;stroke-miterlimit:10;stroke-dasharray:none;stroke-opacity:1"
             id="path7085"
             inkscape:connector-curvature="0" /></g><g
           id="g7087"
           style="stroke-width:0.75;stroke-miterlimit:10;stroke-dasharray:none"><text
             transform="matrix(1,0,0,-1,502.5,454.9)"
             style="font-variant:normal;font-weight:normal;font-size:12px;font-family:'Liberation Sans';-inkscape-font-specification:LiberationSans;writing-mode:lr-tb;fill:#000000;fill-opacity:1;fill-rule:nonzero;stroke:none;stroke-width:0.75;stroke-miterlimit:10;stroke-dasharray:none"
             id="text7091"><tspan
               x="0 7.9920001 14.784 18.684 24.684 31.368"
               y="0"
               sodipodi:role="line"
               id="tspan7089">Person</tspan></text>
</g><path
           d="m 521.6,586.7 h -34 V 632 h 68 v -45.3 z"
           style="fill:#ffffff;fill-opacity:1;fill-rule:evenodd;stroke:none;stroke-width:0.75;stroke-miterlimit:10;stroke-dasharray:none"
           id="path7093"
           inkscape:connector-curvature="0" /><g
           id="g7095"
           style="stroke-width:0.75;stroke-miterlimit:10;stroke-dasharray:none"><path
             d="m 521.6,586.7 h -34 V 632 h 68 v -45.3 z"
             style="fill:none;stroke:#000000;stroke-width:0.75;stroke-linecap:butt;stroke-linejoin:round;stroke-miterlimit:10;stroke-dasharray:none;stroke-opacity:1"
             id="path7097"
             inkscape:connector-curvature="0" /></g><g
           id="g7099"
           style="stroke-width:0.75;stroke-miterlimit:10;stroke-dasharray:none"><text
             transform="matrix(1,0,0,-1,509.9,618.6)"
             style="font-variant:normal;font-weight:normal;font-size:12px;font-family:'Liberation Sans';-inkscape-font-specification:LiberationSans;writing-mode:lr-tb;fill:#000000;fill-opacity:1;fill-rule:nonzero;stroke:none;stroke-width:0.75;stroke-miterlimit:10;stroke-dasharray:none"
             id="text7103"><tspan
               x="0 7.9920001 10.68 16.584"
               y="0"
               sodipodi:role="line"
               id="tspan7101">Also</tspan></text>
</g><g
           id="g7105"
           style="stroke-width:0.75;stroke-miterlimit:10;stroke-dasharray:none"><text
             transform="matrix(1,0,0,-1,504.2,605.2)"
             style="font-variant:normal;font-weight:normal;font-size:12px;font-family:'Liberation Sans';-inkscape-font-specification:LiberationSans;writing-mode:lr-tb;fill:#000000;fill-opacity:1;fill-rule:nonzero;stroke:none;stroke-width:0.75;stroke-miterlimit:10;stroke-dasharray:none"
             id="text7109"><tspan
               x="0 6 12.684 19.368 28.056"
               y="0"
               sodipodi:role="line"
               id="tspan7107">known</tspan></text>
</g><g
           id="g7111"
           style="stroke-width:0.75;stroke-miterlimit:10;stroke-dasharray:none"><text
             transform="matrix(1,0,0,-1,515.2,591.7)"
             style="font-variant:normal;font-weight:normal;font-size:12px;font-family:'Liberation Sans';-inkscape-font-specification:LiberationSans;writing-mode:lr-tb;fill:#000000;fill-opacity:1;fill-rule:nonzero;stroke:none;stroke-width:0.75;stroke-miterlimit:10;stroke-dasharray:none"
             id="text7115"><tspan
               x="0 6.684"
               y="0"
               sodipodi:role="line"
               id="tspan7113">as</tspan></text>
</g><path
           d="m 403.9,340.1 h -34 v 34 H 438 v -34 z"
           style="fill:#ffffff;fill-opacity:1;fill-rule:evenodd;stroke:none;stroke-width:0.75;stroke-miterlimit:10;stroke-dasharray:none"
           id="path7117"
           inkscape:connector-curvature="0" /><g
           id="g7119"
           style="stroke-width:0.75;stroke-miterlimit:10;stroke-dasharray:none"><path
             d="m 403.9,340.1 h -34 v 34 H 438 v -34 z"
             style="fill:none;stroke:#000000;stroke-width:0.75;stroke-linecap:butt;stroke-linejoin:round;stroke-miterlimit:10;stroke-dasharray:none;stroke-opacity:1"
             id="path7121"
             inkscape:connector-curvature="0" /></g><g
           id="g7123"
           style="stroke-width:0.75;stroke-miterlimit:10;stroke-dasharray:none"><text
             transform="matrix(1,0,0,-1,367.9,352.9)"
             style="font-variant:normal;font-weight:normal;font-size:12px;font-family:'Liberation Sans';-inkscape-font-specification:LiberationSans;writing-mode:lr-tb;fill:#000000;fill-opacity:1;fill-rule:nonzero;stroke:none;stroke-width:0.75;stroke-miterlimit:10;stroke-dasharray:none"
             id="text7127"><tspan
               x="0 8.6040001 15.288 21.372 24.672001 28.056 37.956001 44.639999 54.636002 61.32 68.112"
               y="0"
               sodipodi:role="line"
               id="tspan7125">Cast member</tspan></text>
</g><path
           d="m 403.9,530 h -34 v 34 H 438 v -34 z"
           style="fill:#ffffff;fill-opacity:1;fill-rule:evenodd;stroke:none;stroke-width:0.75;stroke-miterlimit:10;stroke-dasharray:none"
           id="path7129"
           inkscape:connector-curvature="0" /><g
           id="g7131"
           style="stroke-width:0.75;stroke-miterlimit:10;stroke-dasharray:none"><path
             d="m 403.9,530 h -34 v 34 H 438 v -34 z"
             style="fill:none;stroke:#000000;stroke-width:0.75;stroke-linecap:butt;stroke-linejoin:round;stroke-miterlimit:10;stroke-dasharray:none;stroke-opacity:1"
             id="path7133"
             inkscape:connector-curvature="0" /></g><g
           id="g7135"
           style="stroke-width:0.75;stroke-miterlimit:10;stroke-dasharray:none"><text
             transform="matrix(1,0,0,-1,390,542.8)"
             style="font-variant:normal;font-weight:normal;font-size:12px;font-family:'Liberation Sans';-inkscape-font-specification:LiberationSans;writing-mode:lr-tb;fill:#000000;fill-opacity:1;fill-rule:nonzero;stroke:none;stroke-width:0.75;stroke-miterlimit:10;stroke-dasharray:none"
             id="text7139"><tspan
               x="0 8.6040001 12.6 19.284"
               y="0"
               sodipodi:role="line"
               id="tspan7137">Crew</tspan></text>
</g><path
           d="m 332.3,470.5 h 2.2 l 18.4,76.5 h 0.6"
           style="fill:none;stroke:#000000;stroke-width:0.75;stroke-linecap:butt;stroke-linejoin:miter;stroke-miterlimit:10;stroke-dasharray:none;stroke-opacity:1"
           id="path7141"
           inkscape:connector-curvature="0" /><path
           d="m 328.9,466.5 v 0 c -0.7,0 -1.4,0.1 -2,0.5 -0.6,0.4 -1.1,0.8 -1.5,1.5 -0.3,0.6 -0.5,1.2 -0.5,2 0,0.7 0.2,1.3 0.5,1.9 0.4,0.7 0.9,1.2 1.5,1.5 0.6,0.4 1.3,0.6 2,0.6 0.7,0 1.4,-0.2 2,-0.6 0.6,-0.3 1.1,-0.8 1.5,-1.5 0.3,-0.6 0.5,-1.2 0.5,-1.9 0,-0.8 -0.2,-1.4 -0.5,-2 -0.4,-0.7 -0.9,-1.1 -1.5,-1.5 -0.6,-0.4 -1.3,-0.5 -2,-0.5 z m 0,0.4 v 0 c -0.6,0 -1.2,0.1 -1.8,0.4 -0.5,0.4 -1,0.8 -1.3,1.4 -0.3,0.5 -0.5,1.1 -0.5,1.8 0,0.6 0.2,1.2 0.5,1.7 0.3,0.6 0.8,1 1.3,1.4 0.6,0.3 1.2,0.5 1.8,0.5 0.7,0 1.2,-0.2 1.8,-0.5 0.6,-0.4 1,-0.8 1.3,-1.4 0.3,-0.5 0.5,-1.1 0.5,-1.7 0,-0.7 -0.2,-1.3 -0.5,-1.8 -0.3,-0.6 -0.7,-1 -1.3,-1.4 -0.6,-0.3 -1.1,-0.4 -1.8,-0.4 z m -4,3.6 v 0.2 h -7.4 v -0.5 h 7.4 z m -3.7,0.2 h 0.3 v 4 h -0.6 v -4 z m 0,-0.5 h 0.3 v -4 h -0.6 v 4 z"
           style="fill:#000000;fill-opacity:1;fill-rule:evenodd;stroke:none;stroke-width:0.75;stroke-miterlimit:10;stroke-dasharray:none"
           id="path7143"
           inkscape:connector-curvature="0" /><path
           d="m 357.2,551.2 v 0 c 0.8,0 1.4,-0.1 2.1,-0.5 0.7,-0.4 1.2,-0.9 1.6,-1.6 0.3,-0.7 0.5,-1.3 0.5,-2.1 0,-0.8 -0.2,-1.4 -0.5,-2.1 -0.4,-0.7 -0.9,-1.2 -1.6,-1.6 -0.7,-0.4 -1.3,-0.6 -2.1,-0.6 -0.8,0 -1.5,0.2 -2.2,0.6 -0.6,0.4 -1.1,0.9 -1.5,1.6 -0.4,0.7 -0.6,1.3 -0.6,2.1 0,0.8 0.2,1.4 0.6,2.1 0.4,0.7 0.9,1.2 1.5,1.6 0.7,0.4 1.4,0.5 2.2,0.5 z m 0,-0.4 v 0 c 0.7,0 1.3,-0.1 1.9,-0.5 0.6,-0.4 1,-0.8 1.4,-1.4 0.3,-0.6 0.5,-1.2 0.5,-1.9 0,-0.7 -0.2,-1.3 -0.5,-1.9 -0.4,-0.6 -0.8,-1.1 -1.4,-1.4 -0.6,-0.4 -1.2,-0.5 -1.9,-0.5 -0.7,0 -1.3,0.1 -1.9,0.5 -0.7,0.3 -1.1,0.8 -1.5,1.4 -0.3,0.6 -0.5,1.2 -0.5,1.9 0,0.7 0.2,1.3 0.5,1.9 0.4,0.6 0.8,1 1.4,1.4 0.7,0.4 1.3,0.5 2,0.5 z m 4.2,-3.8 7.9,-4.3 h 0.6 v 0.4 l -6.8,3.6 h 6.8 v 0.6 h -6.8 l 6.8,3.6 v 0.3 h -0.6 z"
           style="fill:#000000;fill-opacity:1;fill-rule:evenodd;stroke:none;stroke-width:0.75;stroke-miterlimit:10;stroke-dasharray:none"
           id="path7145"
           inkscape:connector-curvature="0" /><path
           d="m 332.3,444 h 2.2 l 16.9,-86.9 h 2.1"
           style="fill:none;stroke:#000000;stroke-width:0.75;stroke-linecap:butt;stroke-linejoin:miter;stroke-miterlimit:10;stroke-dasharray:none;stroke-opacity:1"
           id="path7147"
           inkscape:connector-curvature="0" /><path
           d="m 328.9,440 v 0 c -0.7,0 -1.4,0.2 -2,0.6 -0.6,0.3 -1.1,0.8 -1.5,1.4 -0.3,0.7 -0.5,1.3 -0.5,2 0,0.8 0.2,1.4 0.5,2 0.4,0.7 0.9,1.1 1.5,1.5 0.6,0.3 1.3,0.5 2,0.5 0.7,0 1.4,-0.2 2,-0.5 0.6,-0.4 1.1,-0.8 1.5,-1.5 0.3,-0.6 0.5,-1.2 0.5,-2 0,-0.7 -0.2,-1.3 -0.5,-2 -0.4,-0.6 -0.9,-1.1 -1.5,-1.4 -0.6,-0.4 -1.3,-0.6 -2,-0.6 z m 0,0.4 v 0 c -0.6,0 -1.2,0.2 -1.8,0.5 -0.5,0.3 -1,0.8 -1.3,1.3 -0.3,0.6 -0.5,1.2 -0.5,1.8 0,0.7 0.2,1.2 0.5,1.8 0.3,0.6 0.8,1 1.3,1.3 0.6,0.3 1.2,0.5 1.8,0.5 0.7,0 1.2,-0.2 1.8,-0.5 0.6,-0.3 1,-0.7 1.3,-1.3 0.3,-0.6 0.5,-1.1 0.5,-1.8 0,-0.6 -0.2,-1.2 -0.5,-1.8 -0.3,-0.5 -0.7,-1 -1.3,-1.3 -0.6,-0.3 -1.1,-0.5 -1.8,-0.5 z m -4,3.6 v 0.3 h -7.4 v -0.5 h 7.4 z m -3.7,0.3 h 0.3 v 4 h -0.6 v -4 z m 0,-0.5 h 0.3 v -4 h -0.6 v 4 z"
           style="fill:#000000;fill-opacity:1;fill-rule:evenodd;stroke:none;stroke-width:0.75;stroke-miterlimit:10;stroke-dasharray:none"
           id="path7149"
           inkscape:connector-curvature="0" /><path
           d="m 357.2,361.3 v 0 c 0.8,0 1.4,-0.1 2.1,-0.5 0.7,-0.4 1.2,-0.9 1.6,-1.6 0.3,-0.7 0.5,-1.3 0.5,-2.1 0,-0.8 -0.2,-1.5 -0.5,-2.2 -0.4,-0.6 -0.9,-1.1 -1.6,-1.5 -0.7,-0.4 -1.3,-0.6 -2.1,-0.6 -0.8,0 -1.5,0.2 -2.2,0.6 -0.6,0.4 -1.1,0.9 -1.5,1.5 -0.4,0.7 -0.6,1.4 -0.6,2.2 0,0.8 0.2,1.4 0.6,2.1 0.4,0.7 0.9,1.2 1.5,1.6 0.7,0.4 1.4,0.5 2.2,0.5 z m 0,-0.4 v 0 c 0.7,0 1.3,-0.2 1.9,-0.5 0.6,-0.4 1,-0.8 1.4,-1.4 0.3,-0.6 0.5,-1.2 0.5,-1.9 0,-0.7 -0.2,-1.3 -0.5,-2 -0.4,-0.5 -0.8,-1 -1.4,-1.3 -0.6,-0.4 -1.2,-0.6 -1.9,-0.6 -0.7,0 -1.3,0.2 -1.9,0.6 -0.7,0.3 -1.1,0.8 -1.5,1.3 -0.3,0.7 -0.5,1.3 -0.5,2 0,0.7 0.2,1.3 0.5,1.9 0.4,0.6 0.8,1 1.4,1.4 0.7,0.3 1.3,0.5 2,0.5 z m 4.2,-3.8 7.9,-4.3 h 0.6 v 0.3 l -6.8,3.7 h 6.8 v 0.6 h -6.8 l 6.8,3.6 v 0.3 h -0.6 z"
           style="fill:#000000;fill-opacity:1;fill-rule:evenodd;stroke:none;stroke-width:0.75;stroke-miterlimit:10;stroke-dasharray:none"
           id="path7151"
           inkscape:connector-curvature="0" /><path
           d="m 472.7,483.2 h -2.2 L 455,547 h -0.6"
           style="fill:none;stroke:#000000;stroke-width:0.75;stroke-linecap:butt;stroke-linejoin:miter;stroke-miterlimit:10;stroke-dasharray:none;stroke-opacity:1"
           id="path7153"
           inkscape:connector-curvature="0" /><path
           d="m 476.1,487.2 v 0 c 0.8,0 1.4,-0.2 2,-0.6 0.7,-0.3 1.1,-0.8 1.5,-1.4 0.4,-0.7 0.5,-1.3 0.5,-2 0,-0.7 -0.1,-1.4 -0.5,-2 -0.4,-0.6 -0.8,-1.1 -1.5,-1.5 -0.6,-0.3 -1.2,-0.5 -2,-0.5 -0.7,0 -1.3,0.2 -1.9,0.5 -0.7,0.4 -1.2,0.9 -1.5,1.5 -0.4,0.6 -0.6,1.3 -0.6,2 0,0.7 0.2,1.3 0.6,2 0.3,0.6 0.8,1.1 1.4,1.4 0.7,0.4 1.3,0.6 2,0.6 z m 0,-0.4 v 0 c 0.7,0 1.3,-0.2 1.8,-0.5 0.6,-0.3 1,-0.8 1.3,-1.3 0.4,-0.6 0.5,-1.2 0.5,-1.8 0,-0.7 -0.1,-1.2 -0.5,-1.8 -0.3,-0.6 -0.7,-1 -1.3,-1.3 -0.5,-0.3 -1.1,-0.5 -1.8,-0.5 -0.6,0 -1.2,0.2 -1.8,0.5 -0.5,0.3 -0.9,0.7 -1.3,1.3 -0.3,0.6 -0.5,1.1 -0.5,1.8 0,0.6 0.2,1.2 0.5,1.8 0.4,0.5 0.8,1 1.3,1.3 0.6,0.3 1.2,0.5 1.8,0.5 z m 4,-3.6 v -0.3 h 7.5 v 0.5 h -7.5 z m 3.7,-0.3 h -0.2 v -4 h 0.5 v 4 z m 0,0.5 h -0.2 v 4 h 0.5 v -4 z"
           style="fill:#000000;fill-opacity:1;fill-rule:evenodd;stroke:none;stroke-width:0.75;stroke-miterlimit:10;stroke-dasharray:none"
           id="path7155"
           inkscape:connector-curvature="0" /><path
           d="m 450.7,542.7 v 0 c -0.8,0 -1.4,0.2 -2.1,0.6 -0.7,0.4 -1.2,0.9 -1.6,1.6 -0.4,0.7 -0.5,1.3 -0.5,2.1 0,0.8 0.1,1.4 0.5,2.1 0.4,0.7 0.9,1.2 1.6,1.6 0.7,0.4 1.3,0.5 2.1,0.5 0.8,0 1.5,-0.1 2.1,-0.5 0.7,-0.4 1.2,-0.9 1.6,-1.6 0.4,-0.7 0.6,-1.3 0.6,-2.1 0,-0.8 -0.2,-1.4 -0.6,-2.1 -0.4,-0.7 -0.9,-1.2 -1.6,-1.6 -0.6,-0.4 -1.3,-0.6 -2.1,-0.6 z m 0,0.5 v 0 c -0.7,0 -1.3,0.1 -1.9,0.5 -0.6,0.3 -1,0.8 -1.4,1.4 -0.3,0.6 -0.5,1.2 -0.5,1.9 0,0.7 0.2,1.3 0.5,1.9 0.4,0.6 0.8,1 1.4,1.4 0.6,0.4 1.2,0.5 1.9,0.5 0.7,0 1.3,-0.1 1.9,-0.5 0.6,-0.4 1.1,-0.8 1.4,-1.4 0.4,-0.6 0.5,-1.2 0.5,-1.9 0,-0.7 -0.1,-1.3 -0.5,-1.9 -0.3,-0.6 -0.8,-1.1 -1.4,-1.4 -0.6,-0.4 -1.2,-0.5 -1.9,-0.5 z m -4.2,3.8 -8,4.2 H 438 v -0.3 l 6.7,-3.6 H 438 v -0.6 h 6.7 l -6.7,-3.6 v -0.4 h 0.5 z"
           style="fill:#000000;fill-opacity:1;fill-rule:evenodd;stroke:none;stroke-width:0.75;stroke-miterlimit:10;stroke-dasharray:none"
           id="path7157"
           inkscape:connector-curvature="0" /><path
           d="m 472.7,437.9 h -2.2 l -13.9,-80.8 h -2.2"
           style="fill:none;stroke:#000000;stroke-width:0.75;stroke-linecap:butt;stroke-linejoin:miter;stroke-miterlimit:10;stroke-dasharray:none;stroke-opacity:1"
           id="path7159"
           inkscape:connector-curvature="0" /><path
           d="m 476.1,441.9 v 0 c 0.8,0 1.4,-0.2 2,-0.6 0.7,-0.3 1.1,-0.8 1.5,-1.4 0.4,-0.6 0.5,-1.3 0.5,-2 0,-0.7 -0.1,-1.4 -0.5,-2 -0.4,-0.6 -0.8,-1.1 -1.5,-1.5 -0.6,-0.3 -1.2,-0.5 -2,-0.5 -0.7,0 -1.3,0.2 -1.9,0.5 -0.7,0.4 -1.2,0.9 -1.5,1.5 -0.4,0.6 -0.6,1.3 -0.6,2 0,0.7 0.2,1.4 0.6,2 0.3,0.6 0.8,1.1 1.4,1.4 0.7,0.4 1.3,0.6 2,0.6 z m 0,-0.4 v 0 c 0.7,0 1.3,-0.2 1.8,-0.5 0.6,-0.3 1,-0.8 1.3,-1.3 0.4,-0.6 0.5,-1.2 0.5,-1.8 0,-0.7 -0.1,-1.2 -0.5,-1.8 -0.3,-0.6 -0.7,-1 -1.3,-1.3 -0.5,-0.3 -1.1,-0.5 -1.8,-0.5 -0.6,0 -1.2,0.2 -1.8,0.5 -0.5,0.3 -0.9,0.7 -1.3,1.3 -0.3,0.6 -0.5,1.1 -0.5,1.8 0,0.6 0.2,1.2 0.5,1.8 0.4,0.5 0.8,1 1.3,1.3 0.6,0.3 1.2,0.5 1.8,0.5 z m 4,-3.6 v -0.3 h 7.5 v 0.5 h -7.5 z m 3.7,-0.3 h -0.2 v -4 h 0.5 v 4 z m 0,0.5 h -0.2 v 4 h 0.5 v -4 z"
           style="fill:#000000;fill-opacity:1;fill-rule:evenodd;stroke:none;stroke-width:0.75;stroke-miterlimit:10;stroke-dasharray:none"
           id="path7161"
           inkscape:connector-curvature="0" /><path
           d="m 450.7,352.8 v 0 c -0.8,0 -1.4,0.2 -2.1,0.6 -0.7,0.4 -1.2,0.9 -1.6,1.5 -0.4,0.7 -0.5,1.4 -0.5,2.2 0,0.8 0.1,1.4 0.5,2.1 0.4,0.7 0.9,1.2 1.6,1.6 0.7,0.4 1.3,0.5 2.1,0.5 0.8,0 1.5,-0.1 2.1,-0.5 0.7,-0.4 1.2,-0.9 1.6,-1.6 0.4,-0.7 0.6,-1.3 0.6,-2.1 0,-0.8 -0.2,-1.5 -0.6,-2.2 -0.4,-0.6 -0.9,-1.1 -1.6,-1.5 -0.6,-0.4 -1.3,-0.6 -2.1,-0.6 z m 0,0.4 v 0 c -0.7,0 -1.3,0.2 -1.9,0.6 -0.6,0.3 -1,0.8 -1.4,1.3 -0.3,0.7 -0.5,1.3 -0.5,2 0,0.7 0.2,1.3 0.5,1.9 0.4,0.6 0.8,1 1.4,1.4 0.6,0.3 1.2,0.5 1.9,0.5 0.7,0 1.3,-0.2 1.9,-0.5 0.6,-0.4 1.1,-0.8 1.4,-1.4 0.4,-0.6 0.5,-1.2 0.5,-1.9 0,-0.7 -0.1,-1.3 -0.5,-2 -0.3,-0.5 -0.8,-1 -1.4,-1.3 -0.6,-0.4 -1.2,-0.6 -1.9,-0.6 z m -4.2,3.9 -8,4.2 H 438 V 361 l 6.7,-3.6 H 438 v -0.6 h 6.7 l -6.7,-3.7 v -0.3 h 0.5 z"
           style="fill:#000000;fill-opacity:1;fill-rule:evenodd;stroke:none;stroke-width:0.75;stroke-miterlimit:10;stroke-dasharray:none"
           id="path7163"
           inkscape:connector-curvature="0" /><path
           d="m 521.6,515.1 v 2.2 52.3 0.6"
           style="fill:none;stroke:#000000;stroke-width:0.75;stroke-linecap:butt;stroke-linejoin:miter;stroke-miterlimit:10;stroke-dasharray:none;stroke-opacity:1"
           id="path7165"
           inkscape:connector-curvature="0" /><path
           d="m 525.6,511.6 v 0 c 0,-0.7 -0.2,-1.3 -0.6,-1.9 -0.3,-0.7 -0.8,-1.1 -1.4,-1.5 -0.7,-0.4 -1.3,-0.5 -2,-0.5 -0.8,0 -1.4,0.1 -2,0.5 -0.7,0.4 -1.1,0.8 -1.5,1.5 -0.4,0.6 -0.5,1.2 -0.5,1.9 0,0.8 0.1,1.4 0.5,2 0.4,0.7 0.8,1.1 1.5,1.5 0.6,0.4 1.2,0.5 2,0.5 0.7,0 1.3,-0.1 2,-0.5 0.6,-0.4 1.1,-0.8 1.4,-1.4 0.4,-0.7 0.6,-1.3 0.6,-2.1 z m -0.4,0 v 0 c 0,-0.6 -0.2,-1.2 -0.5,-1.7 -0.3,-0.6 -0.8,-1 -1.3,-1.3 -0.6,-0.4 -1.2,-0.5 -1.8,-0.5 -0.7,0 -1.2,0.1 -1.8,0.5 -0.6,0.3 -1,0.7 -1.3,1.3 -0.4,0.5 -0.5,1.1 -0.5,1.7 0,0.7 0.1,1.3 0.5,1.8 0.3,0.6 0.7,1 1.3,1.4 0.6,0.3 1.1,0.4 1.8,0.4 0.6,0 1.2,-0.1 1.8,-0.4 0.5,-0.4 1,-0.8 1.3,-1.4 0.3,-0.5 0.5,-1.1 0.5,-1.8 z m -3.6,-3.9 h -0.3 v -7.5 h 0.5 v 7.5 z m -0.3,-3.8 v 0.3 h -4 v -0.5 h 4 z m 0.5,0 v 0.3 h 4 v -0.5 h -4 z"
           style="fill:#000000;fill-opacity:1;fill-rule:evenodd;stroke:none;stroke-width:0.75;stroke-miterlimit:10;stroke-dasharray:none"
           id="path7167"
           inkscape:connector-curvature="0" /><path
           d="m 517.3,573.9 v 0 c 0,0.8 0.2,1.5 0.6,2.2 0.4,0.6 0.9,1.1 1.5,1.5 0.7,0.4 1.4,0.6 2.2,0.6 0.8,0 1.4,-0.2 2.1,-0.6 0.7,-0.4 1.2,-0.9 1.6,-1.5 0.4,-0.7 0.5,-1.4 0.5,-2.2 0,-0.8 -0.1,-1.4 -0.5,-2.1 -0.4,-0.7 -0.9,-1.2 -1.6,-1.6 -0.7,-0.4 -1.3,-0.5 -2.1,-0.5 -0.8,0 -1.5,0.1 -2.2,0.5 -0.6,0.4 -1.1,0.9 -1.5,1.6 -0.4,0.7 -0.6,1.3 -0.6,2.1 z m 0.4,0 v 0 c 0,0.7 0.2,1.3 0.6,1.9 0.3,0.6 0.8,1.1 1.4,1.4 0.6,0.4 1.2,0.6 1.9,0.6 0.7,0 1.3,-0.2 1.9,-0.6 0.6,-0.3 1.1,-0.8 1.4,-1.4 0.3,-0.6 0.5,-1.2 0.5,-1.9 0,-0.7 -0.2,-1.3 -0.5,-1.9 -0.3,-0.6 -0.8,-1.1 -1.4,-1.4 -0.6,-0.3 -1.2,-0.5 -1.9,-0.5 -0.7,0 -1.3,0.2 -1.9,0.5 -0.6,0.3 -1.1,0.8 -1.4,1.4 -0.4,0.6 -0.6,1.2 -0.6,1.9 z m 3.9,4.3 4.2,7.9 v 0.6 h -0.3 l -3.6,-6.8 v 6.8 h -0.6 v -6.8 l -3.7,6.8 h -0.3 v -0.6 z"
           style="fill:#000000;fill-opacity:1;fill-rule:evenodd;stroke:none;stroke-width:0.75;stroke-miterlimit:10;stroke-dasharray:none"
           id="path7169"
           inkscape:connector-curvature="0" /><path
           d="m 403.9,491 v 2.2 19.8 0.5"
           style="fill:none;stroke:#000000;stroke-width:0.75;stroke-linecap:butt;stroke-linejoin:miter;stroke-miterlimit:10;stroke-dasharray:none;stroke-opacity:1"
           id="path7171"
           inkscape:connector-curvature="0" /><path
           d="m 407.9,487.6 v 0 c 0,-0.8 -0.1,-1.4 -0.5,-2 -0.4,-0.7 -0.8,-1.1 -1.5,-1.5 -0.6,-0.4 -1.2,-0.5 -2,-0.5 -0.7,0 -1.3,0.1 -1.9,0.5 -0.7,0.4 -1.2,0.8 -1.5,1.5 -0.4,0.6 -0.6,1.2 -0.6,2 0,0.7 0.2,1.3 0.6,1.9 0.3,0.7 0.8,1.1 1.5,1.5 0.6,0.4 1.2,0.6 1.9,0.6 0.8,0 1.4,-0.2 2,-0.6 0.7,-0.4 1.1,-0.8 1.5,-1.4 0.4,-0.7 0.5,-1.3 0.5,-2 z m -0.4,0 v 0 c 0,-0.7 -0.1,-1.3 -0.4,-1.8 -0.4,-0.6 -0.8,-1 -1.4,-1.3 -0.5,-0.4 -1.1,-0.5 -1.8,-0.5 -0.6,0 -1.2,0.1 -1.7,0.5 -0.6,0.3 -1,0.7 -1.4,1.3 -0.3,0.5 -0.5,1.1 -0.5,1.8 0,0.6 0.2,1.2 0.5,1.7 0.4,0.6 0.8,1 1.4,1.4 0.5,0.3 1.1,0.5 1.7,0.5 0.7,0 1.3,-0.2 1.8,-0.5 0.6,-0.4 1,-0.8 1.4,-1.4 0.3,-0.5 0.4,-1.1 0.4,-1.7 z m -3.6,-4 h -0.2 v -7.5 h 0.5 v 7.5 z m -0.2,-3.8 v 0.3 h -4 v -0.5 h 4 z m 0.5,0 v 0.3 h 4 v -0.5 h -4 z"
           style="fill:#000000;fill-opacity:1;fill-rule:evenodd;stroke:none;stroke-width:0.75;stroke-miterlimit:10;stroke-dasharray:none"
           id="path7173"
           inkscape:connector-curvature="0" /><path
           d="m 399.7,517.2 v 0 c 0,0.8 0.2,1.5 0.6,2.2 0.3,0.6 0.8,1.1 1.5,1.5 0.7,0.4 1.3,0.6 2.1,0.6 0.8,0 1.5,-0.2 2.2,-0.6 0.6,-0.4 1.1,-0.9 1.5,-1.5 0.4,-0.7 0.6,-1.4 0.6,-2.2 0,-0.8 -0.2,-1.4 -0.6,-2.1 -0.4,-0.7 -0.9,-1.2 -1.5,-1.6 -0.7,-0.3 -1.4,-0.5 -2.2,-0.5 -0.8,0 -1.4,0.2 -2.1,0.5 -0.7,0.4 -1.2,0.9 -1.5,1.6 -0.4,0.7 -0.6,1.3 -0.6,2.1 z m 0.4,0 v 0 c 0,0.7 0.2,1.3 0.5,1.9 0.4,0.7 0.8,1.1 1.4,1.4 0.6,0.4 1.2,0.6 1.9,0.6 0.7,0 1.3,-0.2 2,-0.6 0.6,-0.3 1,-0.7 1.4,-1.4 0.3,-0.6 0.5,-1.2 0.5,-1.9 0,-0.7 -0.2,-1.3 -0.5,-1.9 -0.4,-0.6 -0.8,-1 -1.4,-1.4 -0.7,-0.3 -1.3,-0.5 -2,-0.5 -0.7,0 -1.3,0.2 -1.9,0.5 -0.6,0.4 -1,0.8 -1.4,1.4 -0.3,0.6 -0.5,1.2 -0.5,1.9 z m 3.8,4.3 4.3,7.9 v 0.6 h -0.3 l -3.7,-6.8 v 6.8 h -0.5 v -6.8 L 400,530 h -0.3 v -0.6 z"
           style="fill:#000000;fill-opacity:1;fill-rule:evenodd;stroke:none;stroke-width:0.75;stroke-miterlimit:10;stroke-dasharray:none"
           id="path7175"
           inkscape:connector-curvature="0" /><path
           d="m 403.9,427.3 v -2.2 -34 -0.6"
           style="fill:none;stroke:#000000;stroke-width:0.75;stroke-linecap:butt;stroke-linejoin:miter;stroke-miterlimit:10;stroke-dasharray:none;stroke-opacity:1"
           id="path7177"
           inkscape:connector-curvature="0" /><path
           d="m 399.9,430.7 v 0 c 0,0.7 0.2,1.4 0.6,2 0.3,0.6 0.8,1.1 1.5,1.4 0.6,0.4 1.2,0.6 1.9,0.6 0.8,0 1.4,-0.2 2,-0.6 0.7,-0.3 1.1,-0.8 1.5,-1.4 0.4,-0.6 0.5,-1.3 0.5,-2 0,-0.7 -0.1,-1.4 -0.5,-2 -0.4,-0.6 -0.8,-1.1 -1.5,-1.5 -0.6,-0.3 -1.2,-0.5 -2,-0.5 -0.7,0 -1.3,0.2 -1.9,0.5 -0.7,0.4 -1.2,0.9 -1.5,1.5 -0.4,0.6 -0.6,1.3 -0.6,2 z m 0.4,0 v 0 c 0,0.6 0.2,1.2 0.5,1.8 0.4,0.5 0.8,1 1.4,1.3 0.5,0.3 1.1,0.5 1.7,0.5 0.7,0 1.3,-0.2 1.8,-0.5 0.6,-0.3 1,-0.8 1.4,-1.3 0.3,-0.6 0.4,-1.2 0.4,-1.8 0,-0.7 -0.1,-1.2 -0.4,-1.8 -0.4,-0.6 -0.8,-1 -1.4,-1.3 -0.5,-0.3 -1.1,-0.5 -1.8,-0.5 -0.6,0 -1.2,0.2 -1.7,0.5 -0.6,0.3 -1,0.7 -1.4,1.3 -0.3,0.6 -0.5,1.1 -0.5,1.8 z m 3.6,4 h 0.3 v 7.4 h -0.5 v -7.4 z m 0.3,3.7 v -0.3 h 4 v 0.6 h -4 z m -0.5,0 v -0.3 h -4 v 0.6 h 4 z"
           style="fill:#000000;fill-opacity:1;fill-rule:evenodd;stroke:none;stroke-width:0.75;stroke-miterlimit:10;stroke-dasharray:none"
           id="path7179"
           inkscape:connector-curvature="0" /><path
           d="m 408.2,386.8 v 0 c 0,-0.8 -0.2,-1.4 -0.6,-2.1 -0.4,-0.7 -0.9,-1.1 -1.5,-1.5 -0.7,-0.4 -1.4,-0.6 -2.2,-0.6 -0.8,0 -1.4,0.2 -2.1,0.6 -0.7,0.4 -1.2,0.8 -1.5,1.5 -0.4,0.7 -0.6,1.3 -0.6,2.1 0,0.8 0.2,1.5 0.6,2.2 0.3,0.6 0.8,1.1 1.5,1.5 0.7,0.4 1.3,0.6 2.1,0.6 0.8,0 1.5,-0.2 2.2,-0.6 0.6,-0.4 1.1,-0.9 1.5,-1.5 0.4,-0.7 0.6,-1.4 0.6,-2.2 z m -0.4,0 v 0 c 0,-0.7 -0.2,-1.3 -0.5,-1.9 -0.4,-0.6 -0.8,-1 -1.4,-1.4 -0.7,-0.3 -1.3,-0.5 -2,-0.5 -0.7,0 -1.3,0.2 -1.9,0.5 -0.6,0.4 -1,0.8 -1.4,1.4 -0.3,0.6 -0.5,1.2 -0.5,1.9 0,0.7 0.2,1.3 0.5,1.9 0.4,0.7 0.8,1.1 1.4,1.5 0.6,0.3 1.2,0.5 1.9,0.5 0.7,0 1.3,-0.2 2,-0.5 0.6,-0.4 1,-0.8 1.4,-1.4 0.3,-0.7 0.5,-1.3 0.5,-2 z m -3.9,-4.2 -4.2,-7.9 v -0.6 h 0.3 l 3.7,6.8 v -6.8 h 0.5 v 6.8 l 3.7,-6.8 h 0.3 v 0.6 z"
           style="fill:#000000;fill-opacity:1;fill-rule:evenodd;stroke:none;stroke-width:0.75;stroke-miterlimit:10;stroke-dasharray:none"
           id="path7181"
           inkscape:connector-curvature="0" /><path
           d="m 452.8,459.1 h 2.2 15.5 0.6"
           style="fill:none;stroke:#000000;stroke-width:0.75;stroke-linecap:butt;stroke-linejoin:miter;stroke-miterlimit:10;stroke-dasharray:none;stroke-opacity:1"
           id="path7183"
           inkscape:connector-curvature="0" /><path
           d="m 449.4,455.1 v 0 c -0.8,0 -1.4,0.2 -2,0.6 -0.7,0.3 -1.1,0.8 -1.5,1.4 -0.4,0.7 -0.5,1.3 -0.5,2 0,0.8 0.1,1.4 0.5,2 0.4,0.7 0.8,1.1 1.5,1.5 0.6,0.3 1.2,0.5 2,0.5 0.7,0 1.3,-0.2 2,-0.5 0.6,-0.4 1.1,-0.8 1.4,-1.5 0.4,-0.6 0.6,-1.2 0.6,-2 0,-0.7 -0.2,-1.3 -0.6,-2 -0.3,-0.6 -0.8,-1.1 -1.4,-1.4 -0.7,-0.4 -1.3,-0.6 -2,-0.6 z m 0,0.4 v 0 c -0.7,0 -1.2,0.2 -1.8,0.5 -0.6,0.3 -1,0.8 -1.3,1.3 -0.4,0.6 -0.5,1.2 -0.5,1.8 0,0.7 0.1,1.2 0.5,1.8 0.3,0.6 0.7,1 1.3,1.3 0.6,0.4 1.1,0.5 1.8,0.5 0.6,0 1.2,-0.1 1.8,-0.5 0.6,-0.3 1,-0.7 1.3,-1.3 0.3,-0.6 0.5,-1.1 0.5,-1.8 0,-0.6 -0.2,-1.2 -0.5,-1.8 -0.3,-0.5 -0.7,-1 -1.3,-1.3 -0.6,-0.3 -1.2,-0.5 -1.8,-0.5 z m -4,3.6 v 0.3 H 438 v -0.5 h 7.4 z m -3.7,0.3 h 0.2 v 4 h -0.5 v -4 z m 0,-0.5 h 0.2 v -4 h -0.5 v 4 z"
           style="fill:#000000;fill-opacity:1;fill-rule:evenodd;stroke:none;stroke-width:0.75;stroke-miterlimit:10;stroke-dasharray:none"
           id="path7185"
           inkscape:connector-curvature="0" /><path
           d="m 474.8,463.4 v 0 c 0.8,0 1.4,-0.2 2.1,-0.6 0.7,-0.4 1.2,-0.9 1.6,-1.6 0.4,-0.6 0.6,-1.3 0.6,-2.1 0,-0.8 -0.2,-1.4 -0.6,-2.1 -0.4,-0.7 -0.9,-1.2 -1.6,-1.6 -0.7,-0.4 -1.3,-0.5 -2.1,-0.5 -0.8,0 -1.4,0.1 -2.1,0.5 -0.7,0.4 -1.2,0.9 -1.6,1.6 -0.4,0.7 -0.5,1.3 -0.5,2.1 0,0.8 0.1,1.5 0.5,2.1 0.4,0.7 0.9,1.2 1.6,1.6 0.7,0.4 1.3,0.6 2.1,0.6 z m 0,-0.5 v 0 c 0.7,0 1.3,-0.1 1.9,-0.5 0.6,-0.3 1.1,-0.8 1.4,-1.4 0.4,-0.6 0.5,-1.2 0.5,-1.9 0,-0.7 -0.1,-1.3 -0.5,-1.9 -0.3,-0.6 -0.8,-1.1 -1.4,-1.4 -0.6,-0.3 -1.2,-0.5 -1.9,-0.5 -0.7,0 -1.3,0.2 -1.9,0.5 -0.6,0.3 -1,0.8 -1.4,1.4 -0.4,0.6 -0.5,1.2 -0.5,1.9 0,0.7 0.1,1.3 0.5,1.9 0.4,0.6 0.8,1.1 1.4,1.4 0.6,0.4 1.2,0.5 1.9,0.5 z m 4.3,-3.8 7.9,-4.2 h 0.6 v 0.3 l -6.8,3.6 h 6.8 v 0.6 h -6.8 l 6.8,3.7 v 0.3 H 487 Z"
           style="fill:#000000;fill-opacity:1;fill-rule:evenodd;stroke:none;stroke-width:0.75;stroke-miterlimit:10;stroke-dasharray:none"
           id="path7187"
           inkscape:connector-curvature="0" /><path
           d="m 93.5,578.2 h -34 v 34 h 68.1 v -34 z"
           style="fill:#ffffff;fill-opacity:1;fill-rule:evenodd;stroke:none;stroke-width:0.75;stroke-miterlimit:10;stroke-dasharray:none"
           id="path7189"
           inkscape:connector-curvature="0" /><g
           id="g7191"
           style="stroke-width:0.75;stroke-miterlimit:10;stroke-dasharray:none"><path
             d="m 93.5,578.2 h -34 v 34 h 68.1 v -34 z"
             style="fill:none;stroke:#000000;stroke-width:0.75;stroke-linecap:butt;stroke-linejoin:round;stroke-miterlimit:10;stroke-dasharray:none;stroke-opacity:1"
             id="path7193"
             inkscape:connector-curvature="0" /></g><g
           id="g7195"
           style="stroke-width:0.75;stroke-miterlimit:10;stroke-dasharray:none"><text
             transform="matrix(1,0,0,-1,76.8,591)"
             style="font-variant:normal;font-weight:normal;font-size:12px;font-family:'Liberation Sans';-inkscape-font-specification:LiberationSans;writing-mode:lr-tb;fill:#000000;fill-opacity:1;fill-rule:nonzero;stroke:none;stroke-width:0.75;stroke-miterlimit:10;stroke-dasharray:none"
             id="text7199"><tspan
               x="0 9.3839998 16.068001 22.752001 26.747999"
               y="0"
               sodipodi:role="line"
               id="tspan7197">Genre</tspan></text>
</g><path
           d="m 93.5,484.6 h -34 v 34.1 h 68.1 v -34.1 z"
           style="fill:#ffffff;fill-opacity:1;fill-rule:evenodd;stroke:none;stroke-width:0.75;stroke-miterlimit:10;stroke-dasharray:none"
           id="path7201"
           inkscape:connector-curvature="0" /><g
           id="g7203"
           style="stroke-width:0.75;stroke-miterlimit:10;stroke-dasharray:none"><path
             d="m 93.5,484.6 h -34 v 34.1 h 68.1 v -34.1 z"
             style="fill:none;stroke:#000000;stroke-width:0.75;stroke-linecap:butt;stroke-linejoin:round;stroke-miterlimit:10;stroke-dasharray:none;stroke-opacity:1"
             id="path7205"
             inkscape:connector-curvature="0" /></g><g
           id="g7207"
           style="stroke-width:0.75;stroke-miterlimit:10;stroke-dasharray:none"><text
             transform="matrix(1,0,0,-1,60.4,497.4)"
             style="font-variant:normal;font-weight:normal;font-size:12px;font-family:'Liberation Sans';-inkscape-font-specification:LiberationSans;writing-mode:lr-tb;fill:#000000;fill-opacity:1;fill-rule:nonzero;stroke:none;stroke-width:0.75;stroke-miterlimit:10;stroke-dasharray:none"
             id="text7211"><tspan
               x="0 9.9960003 16.68 22.68 25.284 31.968 35.352001 42.035999 48.720001 55.512001 59.411999"
               y="0"
               sodipodi:role="line"
               id="tspan7209">Movie genre</tspan></text>
</g><path
           d="m 93.5,563.3 v -2.2 -25.4 -0.6"
           style="fill:none;stroke:#000000;stroke-width:0.75;stroke-linecap:butt;stroke-linejoin:miter;stroke-miterlimit:10;stroke-dasharray:none;stroke-opacity:1"
           id="path7213"
           inkscape:connector-curvature="0" /><path
           d="m 89.5,566.8 v 0 c 0,0.7 0.2,1.3 0.6,1.9 0.4,0.7 0.8,1.1 1.5,1.5 0.6,0.4 1.2,0.5 1.9,0.5 0.8,0 1.4,-0.1 2,-0.5 0.7,-0.4 1.1,-0.8 1.5,-1.5 0.4,-0.6 0.5,-1.2 0.5,-1.9 0,-0.8 -0.1,-1.4 -0.5,-2 -0.4,-0.7 -0.8,-1.1 -1.5,-1.5 -0.6,-0.4 -1.2,-0.5 -2,-0.5 -0.7,0 -1.3,0.1 -1.9,0.5 -0.7,0.4 -1.1,0.8 -1.5,1.4 -0.4,0.7 -0.6,1.3 -0.6,2.1 z m 0.4,0 v 0 c 0,0.6 0.2,1.2 0.5,1.7 0.4,0.6 0.8,1 1.4,1.3 0.5,0.4 1.1,0.5 1.7,0.5 0.7,0 1.3,-0.1 1.8,-0.5 0.6,-0.3 1,-0.7 1.4,-1.3 0.3,-0.5 0.4,-1.1 0.4,-1.7 0,-0.7 -0.1,-1.3 -0.4,-1.8 -0.4,-0.6 -0.8,-1 -1.4,-1.4 -0.5,-0.3 -1.1,-0.4 -1.8,-0.4 -0.6,0 -1.2,0.1 -1.7,0.4 -0.6,0.4 -1,0.8 -1.4,1.3 -0.3,0.6 -0.5,1.2 -0.5,1.9 z m 3.6,3.9 h 0.3 v 7.5 h -0.5 v -7.5 z m 0.3,3.8 v -0.3 h 4 v 0.5 h -4 z m -0.5,0 v -0.3 h -4 v 0.5 h 4 z"
           style="fill:#000000;fill-opacity:1;fill-rule:evenodd;stroke:none;stroke-width:0.75;stroke-miterlimit:10;stroke-dasharray:none"
           id="path7215"
           inkscape:connector-curvature="0" /><path
           d="m 97.8,531.4 v 0 c 0,-0.8 -0.2,-1.4 -0.6,-2.1 -0.4,-0.7 -0.9,-1.2 -1.5,-1.6 -0.7,-0.4 -1.4,-0.5 -2.2,-0.5 -0.8,0 -1.4,0.1 -2.1,0.5 -0.7,0.4 -1.1,0.9 -1.5,1.6 -0.4,0.7 -0.6,1.3 -0.6,2.1 0,0.8 0.2,1.5 0.6,2.1 0.4,0.7 0.8,1.2 1.5,1.6 0.7,0.4 1.3,0.6 2.1,0.6 0.8,0 1.5,-0.2 2.2,-0.6 0.6,-0.4 1.1,-0.9 1.5,-1.6 0.4,-0.6 0.6,-1.3 0.6,-2.1 z m -0.4,0 v 0 c 0,-0.7 -0.2,-1.3 -0.5,-1.9 -0.4,-0.6 -0.8,-1 -1.4,-1.4 -0.7,-0.4 -1.2,-0.5 -2,-0.5 -0.7,0 -1.3,0.1 -1.9,0.5 -0.6,0.4 -1,0.8 -1.4,1.4 -0.3,0.6 -0.5,1.2 -0.5,1.9 0,0.7 0.2,1.3 0.5,1.9 0.4,0.6 0.8,1.1 1.4,1.4 0.6,0.4 1.2,0.5 1.9,0.5 0.8,0 1.3,-0.1 2,-0.5 0.6,-0.3 1,-0.8 1.4,-1.4 0.3,-0.6 0.5,-1.2 0.5,-1.9 z m -3.9,-4.2 -4.2,-8 v -0.5 h 0.3 l 3.7,6.7 v -6.7 h 0.5 v 6.7 l 3.7,-6.7 h 0.3 v 0.5 z"
           style="fill:#000000;fill-opacity:1;fill-rule:evenodd;stroke:none;stroke-width:0.75;stroke-miterlimit:10;stroke-dasharray:none"
           id="path7217"
           inkscape:connector-curvature="0" /><path
           d="m 211.9,470.5 h -2.2 l -65.1,31.1 H 144"
           style="fill:none;stroke:#000000;stroke-width:0.75;stroke-linecap:butt;stroke-linejoin:miter;stroke-miterlimit:10;stroke-dasharray:none;stroke-opacity:1"
           id="path7219"
           inkscape:connector-curvature="0" /><path
           d="m 215.3,474.5 v 0 c 0.8,0 1.4,-0.2 2,-0.6 0.7,-0.3 1.1,-0.8 1.5,-1.5 0.4,-0.6 0.5,-1.2 0.5,-1.9 0,-0.8 -0.1,-1.4 -0.5,-2 -0.4,-0.7 -0.8,-1.1 -1.5,-1.5 -0.6,-0.4 -1.2,-0.5 -2,-0.5 -0.7,0 -1.3,0.1 -1.9,0.5 -0.7,0.4 -1.1,0.8 -1.5,1.5 -0.4,0.6 -0.5,1.2 -0.5,2 0,0.7 0.1,1.3 0.5,1.9 0.4,0.7 0.8,1.2 1.4,1.5 0.7,0.4 1.3,0.6 2,0.6 z m 0,-0.4 v 0 c 0.7,0 1.3,-0.2 1.8,-0.5 0.6,-0.4 1,-0.8 1.3,-1.4 0.4,-0.5 0.5,-1.1 0.5,-1.7 0,-0.7 -0.1,-1.3 -0.5,-1.8 -0.3,-0.6 -0.7,-1 -1.3,-1.4 -0.5,-0.3 -1.1,-0.4 -1.8,-0.4 -0.6,0 -1.2,0.1 -1.7,0.4 -0.6,0.4 -1,0.8 -1.4,1.4 -0.3,0.5 -0.5,1.1 -0.5,1.8 0,0.6 0.2,1.2 0.5,1.7 0.4,0.6 0.8,1 1.4,1.4 0.5,0.3 1.1,0.5 1.7,0.5 z m 4,-3.6 v -0.3 h 7.5 v 0.5 h -7.5 z m 3.8,-0.3 h -0.3 v -4 h 0.5 v 4 z m 0,0.5 h -0.3 v 4 h 0.5 v -4 z"
           style="fill:#000000;fill-opacity:1;fill-rule:evenodd;stroke:none;stroke-width:0.75;stroke-miterlimit:10;stroke-dasharray:none"
           id="path7221"
           inkscape:connector-curvature="0" /><path
           d="m 140.3,497.4 v 0 c -0.8,0 -1.4,0.2 -2.1,0.6 -0.7,0.4 -1.2,0.8 -1.6,1.5 -0.4,0.7 -0.5,1.3 -0.5,2.1 0,0.8 0.1,1.5 0.5,2.2 0.4,0.6 0.9,1.1 1.6,1.5 0.7,0.4 1.3,0.6 2.1,0.6 0.8,0 1.5,-0.2 2.1,-0.6 0.7,-0.4 1.2,-0.9 1.6,-1.5 0.4,-0.7 0.6,-1.4 0.6,-2.2 0,-0.8 -0.2,-1.4 -0.6,-2.1 -0.4,-0.7 -0.9,-1.1 -1.6,-1.5 -0.6,-0.4 -1.3,-0.6 -2.1,-0.6 z m 0,0.4 v 0 c -0.7,0 -1.3,0.2 -1.9,0.5 -0.6,0.4 -1,0.8 -1.4,1.4 -0.3,0.6 -0.5,1.2 -0.5,1.9 0,0.8 0.2,1.3 0.5,1.9 0.4,0.7 0.8,1.1 1.4,1.5 0.6,0.3 1.2,0.5 1.9,0.5 0.7,0 1.3,-0.2 1.9,-0.5 0.6,-0.4 1.1,-0.8 1.4,-1.5 0.4,-0.6 0.5,-1.1 0.5,-1.9 0,-0.7 -0.1,-1.3 -0.5,-1.9 -0.3,-0.6 -0.8,-1 -1.4,-1.4 -0.6,-0.3 -1.2,-0.5 -1.9,-0.5 z m -4.2,3.8 -7.9,4.3 h -0.6 v -0.3 l 6.7,-3.7 h -6.7 v -0.5 h 6.7 l -6.7,-3.7 v -0.3 h 0.6 z"
           style="fill:#000000;fill-opacity:1;fill-rule:evenodd;stroke:none;stroke-width:0.75;stroke-miterlimit:10;stroke-dasharray:none"
           id="path7223"
           inkscape:connector-curvature="0" /><path
           d="m 93.5,314.6 h -34 v 34 h 68.1 v -34 z"
           style="fill:#ffffff;fill-opacity:1;fill-rule:evenodd;stroke:none;stroke-width:0.75;stroke-miterlimit:10;stroke-dasharray:none"
           id="path7225"
           inkscape:connector-curvature="0" /><g
           id="g7227"
           style="stroke-width:0.75;stroke-miterlimit:10;stroke-dasharray:none"><path
             d="m 93.5,314.6 h -34 v 34 h 68.1 v -34 z"
             style="fill:none;stroke:#000000;stroke-width:0.75;stroke-linecap:butt;stroke-linejoin:round;stroke-miterlimit:10;stroke-dasharray:none;stroke-opacity:1"
             id="path7229"
             inkscape:connector-curvature="0" /></g><g
           id="g7231"
           style="stroke-width:0.75;stroke-miterlimit:10;stroke-dasharray:none"><text
             transform="matrix(1,0,0,-1,73.1,334.1)"
             style="font-variant:normal;font-weight:normal;font-size:12px;font-family:'Liberation Sans';-inkscape-font-specification:LiberationSans;writing-mode:lr-tb;fill:#000000;fill-opacity:1;fill-rule:nonzero;stroke:none;stroke-width:0.75;stroke-miterlimit:10;stroke-dasharray:none"
             id="text7235"><tspan
               x="0 7.9920001 14.676 21.468 27.372 34.164001"
               y="0"
               sodipodi:role="line"
               id="tspan7233">Spoken</tspan></text>
</g><g
           id="g7237"
           style="stroke-width:0.75;stroke-miterlimit:10;stroke-dasharray:none"><text
             transform="matrix(1,0,0,-1,68.7,320.7)"
             style="font-variant:normal;font-weight:normal;font-size:12px;font-family:'Liberation Sans';-inkscape-font-specification:LiberationSans;writing-mode:lr-tb;fill:#000000;fill-opacity:1;fill-rule:nonzero;stroke:none;stroke-width:0.75;stroke-miterlimit:10;stroke-dasharray:none"
             id="text7241"><tspan
               x="0 2.6040001 9.3959999 16.08 22.764 29.448 36.132 42.924"
               y="0"
               sodipodi:role="line"
               id="tspan7239">language</tspan></text>
</g><path
           d="m 93.5,402.4 h -34 v 34 h 68.1 v -34 z"
           style="fill:#ffffff;fill-opacity:1;fill-rule:evenodd;stroke:none;stroke-width:0.75;stroke-miterlimit:10;stroke-dasharray:none"
           id="path7243"
           inkscape:connector-curvature="0" /><g
           id="g7245"
           style="stroke-width:0.75;stroke-miterlimit:10;stroke-dasharray:none"><path
             d="m 93.5,402.4 h -34 v 34 h 68.1 v -34 z"
             style="fill:none;stroke:#000000;stroke-width:0.75;stroke-linecap:butt;stroke-linejoin:round;stroke-miterlimit:10;stroke-dasharray:none;stroke-opacity:1"
             id="path7247"
             inkscape:connector-curvature="0" /></g><g
           id="g7249"
           style="stroke-width:0.75;stroke-miterlimit:10;stroke-dasharray:none"><text
             transform="matrix(1,0,0,-1,77.5,422)"
             style="font-variant:normal;font-weight:normal;font-size:12px;font-family:'Liberation Sans';-inkscape-font-specification:LiberationSans;writing-mode:lr-tb;fill:#000000;fill-opacity:1;fill-rule:nonzero;stroke:none;stroke-width:0.75;stroke-miterlimit:10;stroke-dasharray:none"
             id="text7253"><tspan
               x="0 9.9960003 16.68 22.68 25.284"
               y="0"
               sodipodi:role="line"
               id="tspan7251">Movie</tspan></text>
</g><g
           id="g7255"
           style="stroke-width:0.75;stroke-miterlimit:10;stroke-dasharray:none"><text
             transform="matrix(1,0,0,-1,68.7,408.5)"
             style="font-variant:normal;font-weight:normal;font-size:12px;font-family:'Liberation Sans';-inkscape-font-specification:LiberationSans;writing-mode:lr-tb;fill:#000000;fill-opacity:1;fill-rule:nonzero;stroke:none;stroke-width:0.75;stroke-miterlimit:10;stroke-dasharray:none"
             id="text7259"><tspan
               x="0 2.6040001 9.3959999 16.08 22.764 29.448 36.132 42.924"
               y="0"
               sodipodi:role="line"
               id="tspan7257">language</tspan></text>
</g><path
           d="m 93.5,363.4 v 2.2 19.8 0.6"
           style="fill:none;stroke:#000000;stroke-width:0.75;stroke-linecap:butt;stroke-linejoin:miter;stroke-miterlimit:10;stroke-dasharray:none;stroke-opacity:1"
           id="path7261"
           inkscape:connector-curvature="0" /><path
           d="m 97.5,360 v 0 c 0,-0.7 -0.1,-1.4 -0.5,-2 -0.4,-0.6 -0.8,-1.1 -1.5,-1.5 -0.6,-0.3 -1.2,-0.5 -2,-0.5 -0.7,0 -1.3,0.2 -1.9,0.5 -0.7,0.4 -1.1,0.9 -1.5,1.5 -0.4,0.6 -0.6,1.3 -0.6,2 0,0.7 0.2,1.4 0.6,2 0.4,0.6 0.8,1.1 1.5,1.5 0.6,0.3 1.2,0.5 1.9,0.5 0.8,0 1.4,-0.2 2,-0.5 0.7,-0.4 1.1,-0.9 1.5,-1.5 0.4,-0.6 0.5,-1.3 0.5,-2 z m -0.4,0 v 0 c 0,-0.7 -0.1,-1.2 -0.4,-1.8 -0.4,-0.6 -0.8,-1 -1.4,-1.3 -0.5,-0.3 -1.1,-0.5 -1.8,-0.5 -0.6,0 -1.2,0.2 -1.7,0.5 -0.6,0.3 -1,0.7 -1.4,1.3 -0.3,0.6 -0.5,1.1 -0.5,1.8 0,0.6 0.2,1.2 0.5,1.8 0.4,0.6 0.8,1 1.4,1.3 0.5,0.3 1.1,0.5 1.7,0.5 0.7,0 1.3,-0.2 1.8,-0.5 0.6,-0.3 1,-0.7 1.4,-1.3 0.3,-0.6 0.4,-1.2 0.4,-1.8 z m -3.6,-4 h -0.2 v -7.4 h 0.5 v 7.4 z m -0.2,-3.7 v 0.3 h -4 V 352 h 4 z m 0.5,0 v 0.3 h 4 V 352 h -4 z"
           style="fill:#000000;fill-opacity:1;fill-rule:evenodd;stroke:none;stroke-width:0.75;stroke-miterlimit:10;stroke-dasharray:none"
           id="path7263"
           inkscape:connector-curvature="0" /><path
           d="m 89.3,389.7 v 0 c 0,0.8 0.2,1.4 0.6,2.1 0.4,0.7 0.8,1.2 1.5,1.6 0.7,0.4 1.3,0.5 2.1,0.5 0.8,0 1.5,-0.1 2.2,-0.5 0.6,-0.4 1.1,-0.9 1.5,-1.6 0.4,-0.7 0.6,-1.3 0.6,-2.1 0,-0.8 -0.2,-1.5 -0.6,-2.2 -0.4,-0.6 -0.9,-1.1 -1.5,-1.5 -0.7,-0.4 -1.4,-0.6 -2.2,-0.6 -0.8,0 -1.4,0.2 -2.1,0.6 -0.7,0.4 -1.1,0.9 -1.5,1.5 -0.4,0.7 -0.6,1.4 -0.6,2.2 z m 0.4,0 v 0 c 0,0.7 0.2,1.3 0.5,1.9 0.4,0.6 0.8,1 1.4,1.4 0.6,0.3 1.2,0.5 1.9,0.5 0.8,0 1.3,-0.2 2,-0.5 0.6,-0.4 1,-0.8 1.4,-1.4 0.3,-0.6 0.5,-1.2 0.5,-1.9 0,-0.7 -0.2,-1.3 -0.5,-2 -0.4,-0.5 -0.8,-1 -1.4,-1.3 -0.7,-0.4 -1.2,-0.6 -2,-0.6 -0.7,0 -1.3,0.2 -1.9,0.6 -0.6,0.3 -1,0.8 -1.4,1.3 -0.3,0.7 -0.5,1.3 -0.5,2 z m 3.8,4.2 4.3,7.9 v 0.6 h -0.3 l -3.7,-6.7 v 6.7 h -0.5 v -6.7 l -3.7,6.7 h -0.3 v -0.6 z"
           style="fill:#000000;fill-opacity:1;fill-rule:evenodd;stroke:none;stroke-width:0.75;stroke-miterlimit:10;stroke-dasharray:none"
           id="path7265"
           inkscape:connector-curvature="0" /><path
           d="m 211.9,444 h -2.2 L 144.6,419.4 H 144"
           style="fill:none;stroke:#000000;stroke-width:0.75;stroke-linecap:butt;stroke-linejoin:miter;stroke-miterlimit:10;stroke-dasharray:none;stroke-opacity:1"
           id="path7267"
           inkscape:connector-curvature="0" /><path
           d="m 215.3,448 v 0 c 0.8,0 1.4,-0.2 2,-0.5 0.7,-0.4 1.1,-0.8 1.5,-1.5 0.4,-0.6 0.5,-1.2 0.5,-2 0,-0.7 -0.1,-1.3 -0.5,-2 -0.4,-0.6 -0.8,-1.1 -1.5,-1.4 -0.6,-0.4 -1.2,-0.6 -2,-0.6 -0.7,0 -1.3,0.2 -1.9,0.6 -0.7,0.3 -1.1,0.8 -1.5,1.4 -0.4,0.7 -0.5,1.3 -0.5,2 0,0.8 0.1,1.4 0.5,2 0.4,0.7 0.8,1.1 1.4,1.5 0.7,0.3 1.3,0.5 2,0.5 z m 0,-0.4 v 0 c 0.7,0 1.3,-0.2 1.8,-0.5 0.6,-0.3 1,-0.7 1.3,-1.3 0.4,-0.6 0.5,-1.1 0.5,-1.8 0,-0.6 -0.1,-1.2 -0.5,-1.8 -0.3,-0.5 -0.7,-1 -1.3,-1.3 -0.5,-0.3 -1.1,-0.5 -1.8,-0.5 -0.6,0 -1.2,0.2 -1.7,0.5 -0.6,0.3 -1,0.8 -1.4,1.3 -0.3,0.6 -0.5,1.2 -0.5,1.8 0,0.7 0.2,1.2 0.5,1.8 0.4,0.6 0.8,1 1.4,1.3 0.5,0.3 1.1,0.5 1.7,0.5 z m 4,-3.6 v -0.2 h 7.5 v 0.5 h -7.5 z m 3.8,-0.2 h -0.3 v -4 h 0.5 v 4 z m 0,0.5 h -0.3 v 4 h 0.5 v -4 z"
           style="fill:#000000;fill-opacity:1;fill-rule:evenodd;stroke:none;stroke-width:0.75;stroke-miterlimit:10;stroke-dasharray:none"
           id="path7269"
           inkscape:connector-curvature="0" /><path
           d="m 140.3,415.2 v 0 c -0.8,0 -1.4,0.2 -2.1,0.6 -0.7,0.3 -1.2,0.8 -1.6,1.5 -0.4,0.7 -0.5,1.3 -0.5,2.1 0,0.8 0.1,1.5 0.5,2.2 0.4,0.6 0.9,1.1 1.6,1.5 0.7,0.4 1.3,0.6 2.1,0.6 0.8,0 1.5,-0.2 2.1,-0.6 0.7,-0.4 1.2,-0.9 1.6,-1.5 0.4,-0.7 0.6,-1.4 0.6,-2.2 0,-0.8 -0.2,-1.4 -0.6,-2.1 -0.4,-0.7 -0.9,-1.2 -1.6,-1.5 -0.6,-0.4 -1.3,-0.6 -2.1,-0.6 z m 0,0.4 v 0 c -0.7,0 -1.3,0.2 -1.9,0.5 -0.6,0.4 -1,0.8 -1.4,1.4 -0.3,0.6 -0.5,1.2 -0.5,1.9 0,0.7 0.2,1.3 0.5,1.9 0.4,0.7 0.8,1.1 1.4,1.5 0.6,0.3 1.2,0.5 1.9,0.5 0.7,0 1.3,-0.2 1.9,-0.5 0.6,-0.4 1.1,-0.8 1.4,-1.5 0.4,-0.6 0.5,-1.2 0.5,-1.9 0,-0.7 -0.1,-1.3 -0.5,-1.9 -0.3,-0.6 -0.8,-1 -1.4,-1.4 -0.6,-0.3 -1.2,-0.5 -1.9,-0.5 z m -4.2,3.8 -7.9,4.3 h -0.6 v -0.3 l 6.7,-3.7 h -6.7 v -0.5 h 6.7 l -6.7,-3.7 v -0.3 h 0.6 z"
           style="fill:#000000;fill-opacity:1;fill-rule:evenodd;stroke:none;stroke-width:0.75;stroke-miterlimit:10;stroke-dasharray:none"
           id="path7271"
           inkscape:connector-curvature="0" /><path
           d="m 201.3,209.7 h -34.1 v 34 h 68.1 v -34 z"
           style="fill:#ffffff;fill-opacity:1;fill-rule:evenodd;stroke:none;stroke-width:0.75;stroke-miterlimit:10;stroke-dasharray:none"
           id="path7273"
           inkscape:connector-curvature="0" /><g
           id="g7275"
           style="stroke-width:0.75;stroke-miterlimit:10;stroke-dasharray:none"><path
             d="m 201.3,209.7 h -34.1 v 34 h 68.1 v -34 z"
             style="fill:none;stroke:#000000;stroke-width:0.75;stroke-linecap:butt;stroke-linejoin:round;stroke-miterlimit:10;stroke-dasharray:none;stroke-opacity:1"
             id="path7277"
             inkscape:connector-curvature="0" /></g><g
           id="g7279"
           style="stroke-width:0.75;stroke-miterlimit:10;stroke-dasharray:none"><text
             transform="matrix(1,0,0,-1,172.5,229.2)"
             style="font-variant:normal;font-weight:normal;font-size:12px;font-family:'Liberation Sans';-inkscape-font-specification:LiberationSans;writing-mode:lr-tb;fill:#000000;fill-opacity:1;fill-rule:nonzero;stroke:none;stroke-width:0.75;stroke-miterlimit:10;stroke-dasharray:none"
             id="text7283"><tspan
               x="0 7.9920001 11.988 18.672001 25.356001 32.040001 38.040001 41.424 44.028 50.712002"
               y="0"
               sodipodi:role="line"
               id="tspan7281">Production</tspan></text>
</g><g
           id="g7285"
           style="stroke-width:0.75;stroke-miterlimit:10;stroke-dasharray:none"><text
             transform="matrix(1,0,0,-1,181.5,215.8)"
             style="font-variant:normal;font-weight:normal;font-size:12px;font-family:'Liberation Sans';-inkscape-font-specification:LiberationSans;writing-mode:lr-tb;fill:#000000;fill-opacity:1;fill-rule:nonzero;stroke:none;stroke-width:0.75;stroke-miterlimit:10;stroke-dasharray:none"
             id="text7289"><tspan
               x="0 6 12.792 19.476 26.16 29.459999 33.456001"
               y="0"
               sodipodi:role="line"
               id="tspan7287">country</tspan></text>
</g><path
           d="m 201.3,297.5 h -34.1 v 42.6 h 68.1 v -42.6 z"
           style="fill:#ffffff;fill-opacity:1;fill-rule:evenodd;stroke:none;stroke-width:0.75;stroke-miterlimit:10;stroke-dasharray:none"
           id="path7291"
           inkscape:connector-curvature="0" /><g
           id="g7293"
           style="stroke-width:0.75;stroke-miterlimit:10;stroke-dasharray:none"><path
             d="m 201.3,297.5 h -34.1 v 42.6 h 68.1 v -42.6 z"
             style="fill:none;stroke:#000000;stroke-width:0.75;stroke-linecap:butt;stroke-linejoin:round;stroke-miterlimit:10;stroke-dasharray:none;stroke-opacity:1"
             id="path7295"
             inkscape:connector-curvature="0" /></g><g
           id="g7297"
           style="stroke-width:0.75;stroke-miterlimit:10;stroke-dasharray:none"><text
             transform="matrix(1,0,0,-1,185.2,328)"
             style="font-variant:normal;font-weight:normal;font-size:12px;font-family:'Liberation Sans';-inkscape-font-specification:LiberationSans;writing-mode:lr-tb;fill:#000000;fill-opacity:1;fill-rule:nonzero;stroke:none;stroke-width:0.75;stroke-miterlimit:10;stroke-dasharray:none"
             id="text7301"><tspan
               x="0 9.9960003 16.68 22.68 25.368"
               y="0"
               sodipodi:role="line"
               id="tspan7299">Movie</tspan></text>
</g><g
           id="g7303"
           style="stroke-width:0.75;stroke-miterlimit:10;stroke-dasharray:none"><text
             transform="matrix(1,0,0,-1,173.1,314.6)"
             style="font-variant:normal;font-weight:normal;font-size:12px;font-family:'Liberation Sans';-inkscape-font-specification:LiberationSans;writing-mode:lr-tb;fill:#000000;fill-opacity:1;fill-rule:nonzero;stroke:none;stroke-width:0.75;stroke-miterlimit:10;stroke-dasharray:none"
             id="text7307"><tspan
               x="0 6.684 10.68 17.364 24.048 30.84 36.84 40.139999 42.743999 49.535999"
               y="0"
               sodipodi:role="line"
               id="tspan7305">production</tspan></text>
</g><g
           id="g7309"
           style="stroke-width:0.75;stroke-miterlimit:10;stroke-dasharray:none"><text
             transform="matrix(1,0,0,-1,181.5,301.2)"
             style="font-variant:normal;font-weight:normal;font-size:12px;font-family:'Liberation Sans';-inkscape-font-specification:LiberationSans;writing-mode:lr-tb;fill:#000000;fill-opacity:1;fill-rule:nonzero;stroke:none;stroke-width:0.75;stroke-miterlimit:10;stroke-dasharray:none"
             id="text7313"><tspan
               x="0 6 12.684 19.368 26.16 29.459999 33.456001"
               y="0"
               sodipodi:role="line"
               id="tspan7311">country</tspan></text>
</g><path
           d="m 201.3,258.5 v 2.2 19.8 0.6"
           style="fill:none;stroke:#000000;stroke-width:0.75;stroke-linecap:butt;stroke-linejoin:miter;stroke-miterlimit:10;stroke-dasharray:none;stroke-opacity:1"
           id="path7315"
           inkscape:connector-curvature="0" /><path
           d="m 205.3,255.1 v 0 c 0,-0.7 -0.2,-1.3 -0.6,-2 -0.4,-0.6 -0.8,-1.1 -1.5,-1.4 -0.6,-0.4 -1.2,-0.6 -1.9,-0.6 -0.8,0 -1.4,0.2 -2,0.6 -0.7,0.3 -1.1,0.8 -1.5,1.4 -0.4,0.7 -0.5,1.3 -0.5,2 0,0.8 0.1,1.4 0.5,2 0.4,0.6 0.8,1.1 1.5,1.5 0.6,0.3 1.2,0.5 2,0.5 0.7,0 1.3,-0.2 1.9,-0.5 0.7,-0.4 1.1,-0.9 1.5,-1.5 0.4,-0.6 0.6,-1.2 0.6,-2 z m -0.4,0 v 0 c 0,-0.6 -0.2,-1.2 -0.5,-1.8 -0.4,-0.5 -0.8,-1 -1.4,-1.3 -0.5,-0.3 -1.1,-0.5 -1.7,-0.5 -0.7,0 -1.3,0.2 -1.8,0.5 -0.6,0.3 -1,0.8 -1.4,1.3 -0.3,0.6 -0.4,1.2 -0.4,1.8 0,0.7 0.1,1.2 0.4,1.8 0.4,0.6 0.8,1 1.4,1.3 0.5,0.3 1.1,0.5 1.8,0.5 0.6,0 1.2,-0.2 1.7,-0.5 0.6,-0.3 1,-0.7 1.4,-1.3 0.3,-0.6 0.5,-1.1 0.5,-1.8 z m -3.6,-4 H 201 v -7.4 h 0.5 v 7.4 z m -0.3,-3.7 v 0.3 h -4 v -0.6 h 4 z m 0.5,0 v 0.3 h 4 v -0.6 h -4 z"
           style="fill:#000000;fill-opacity:1;fill-rule:evenodd;stroke:none;stroke-width:0.75;stroke-miterlimit:10;stroke-dasharray:none"
           id="path7317"
           inkscape:connector-curvature="0" /><path
           d="m 197,284.8 v 0 c 0,0.8 0.2,1.4 0.6,2.1 0.4,0.7 0.9,1.2 1.5,1.6 0.7,0.4 1.4,0.5 2.2,0.5 0.8,0 1.4,-0.1 2.1,-0.5 0.7,-0.4 1.1,-0.9 1.5,-1.6 0.4,-0.7 0.6,-1.3 0.6,-2.1 0,-0.8 -0.2,-1.5 -0.6,-2.1 -0.4,-0.7 -0.8,-1.2 -1.5,-1.6 -0.7,-0.4 -1.3,-0.6 -2.1,-0.6 -0.8,0 -1.5,0.2 -2.2,0.6 -0.6,0.4 -1.1,0.9 -1.5,1.6 -0.4,0.6 -0.6,1.3 -0.6,2.1 z m 0.4,0 v 0 c 0,0.7 0.2,1.3 0.5,1.9 0.4,0.6 0.8,1 1.5,1.4 0.6,0.3 1.2,0.5 1.9,0.5 0.7,0 1.3,-0.2 1.9,-0.5 0.6,-0.4 1,-0.8 1.4,-1.4 0.3,-0.6 0.5,-1.2 0.5,-1.9 0,-0.7 -0.2,-1.3 -0.5,-1.9 -0.4,-0.6 -0.8,-1.1 -1.4,-1.4 -0.6,-0.4 -1.2,-0.5 -1.9,-0.5 -0.7,0 -1.3,0.1 -1.9,0.5 -0.7,0.3 -1.1,0.8 -1.5,1.4 -0.3,0.6 -0.5,1.2 -0.5,1.9 z m 3.9,4.2 4.2,8 v 0.5 h -0.3 l -3.7,-6.7 v 6.7 H 201 v -6.7 l -3.7,6.7 H 197 V 297 Z"
           style="fill:#000000;fill-opacity:1;fill-rule:evenodd;stroke:none;stroke-width:0.75;stroke-miterlimit:10;stroke-dasharray:none"
           id="path7319"
           inkscape:connector-curvature="0" /><path
           d="m 253.2,421.6 v -2.2 l -51.9,-62.3 v -0.6"
           style="fill:none;stroke:#000000;stroke-width:0.75;stroke-linecap:butt;stroke-linejoin:miter;stroke-miterlimit:10;stroke-dasharray:none;stroke-opacity:1"
           id="path7321"
           inkscape:connector-curvature="0" /><path
           d="m 249.3,425 v 0 c 0,0.8 0.1,1.4 0.5,2 0.4,0.7 0.8,1.1 1.5,1.5 0.6,0.3 1.2,0.5 1.9,0.5 0.8,0 1.4,-0.2 2,-0.5 0.7,-0.4 1.1,-0.8 1.5,-1.5 0.4,-0.6 0.5,-1.2 0.5,-2 0,-0.7 -0.1,-1.3 -0.5,-2 -0.4,-0.6 -0.8,-1.1 -1.5,-1.4 -0.6,-0.4 -1.2,-0.6 -2,-0.6 -0.7,0 -1.3,0.2 -1.9,0.6 -0.7,0.3 -1.1,0.8 -1.5,1.4 -0.4,0.7 -0.5,1.3 -0.5,2 z m 0.3,0 v 0 c 0,0.7 0.2,1.2 0.5,1.8 0.4,0.6 0.8,1 1.4,1.3 0.5,0.4 1.1,0.5 1.7,0.5 0.7,0 1.3,-0.1 1.8,-0.5 0.6,-0.3 1,-0.7 1.4,-1.3 0.3,-0.6 0.4,-1.1 0.4,-1.8 0,-0.6 -0.1,-1.2 -0.4,-1.8 -0.4,-0.6 -0.8,-1 -1.4,-1.3 -0.5,-0.3 -1.1,-0.5 -1.8,-0.5 -0.6,0 -1.2,0.2 -1.7,0.5 -0.6,0.3 -1,0.7 -1.4,1.3 -0.3,0.6 -0.5,1.2 -0.5,1.8 z m 3.6,4 h 0.3 v 7.4 H 253 V 429 Z m 0.3,3.7 v -0.3 h 4 v 0.6 h -4 z m -0.5,0 v -0.3 h -4 v 0.6 h 4 z"
           style="fill:#000000;fill-opacity:1;fill-rule:evenodd;stroke:none;stroke-width:0.75;stroke-miterlimit:10;stroke-dasharray:none"
           id="path7323"
           inkscape:connector-curvature="0" /><path
           d="m 205.5,352.8 v 0 c 0,-0.8 -0.2,-1.4 -0.6,-2.1 -0.4,-0.7 -0.8,-1.2 -1.5,-1.6 -0.7,-0.4 -1.3,-0.5 -2.1,-0.5 -0.8,0 -1.5,0.1 -2.2,0.5 -0.6,0.4 -1.1,0.9 -1.5,1.6 -0.4,0.7 -0.6,1.3 -0.6,2.1 0,0.8 0.2,1.5 0.6,2.1 0.4,0.7 0.9,1.2 1.5,1.6 0.7,0.4 1.4,0.6 2.2,0.6 0.8,0 1.4,-0.2 2.1,-0.6 0.7,-0.4 1.1,-0.9 1.5,-1.6 0.4,-0.6 0.6,-1.3 0.6,-2.1 z m -0.4,0 v 0 c 0,-0.7 -0.2,-1.3 -0.5,-1.9 -0.4,-0.6 -0.8,-1 -1.4,-1.4 -0.6,-0.3 -1.2,-0.5 -1.9,-0.5 -0.7,0 -1.3,0.2 -1.9,0.5 -0.7,0.4 -1.1,0.8 -1.5,1.4 -0.3,0.6 -0.5,1.2 -0.5,1.9 0,0.7 0.2,1.3 0.5,1.9 0.4,0.6 0.8,1.1 1.5,1.4 0.6,0.4 1.2,0.6 1.9,0.6 0.7,0 1.3,-0.2 1.9,-0.6 0.6,-0.3 1,-0.8 1.4,-1.3 0.3,-0.7 0.5,-1.3 0.5,-2 z m -3.8,-4.2 -4.3,-7.9 v -0.6 h 0.3 l 3.7,6.7 v -6.7 h 0.5 v 6.7 l 3.7,-6.7 h 0.3 v 0.6 z"
           style="fill:#000000;fill-opacity:1;fill-rule:evenodd;stroke:none;stroke-width:0.75;stroke-miterlimit:10;stroke-dasharray:none"
           id="path7325"
           inkscape:connector-curvature="0" /><path
           d="m 306.1,209.7 h -34 v 34 h 68.1 v -34 z"
           style="fill:#ffffff;fill-opacity:1;fill-rule:evenodd;stroke:none;stroke-width:0.75;stroke-miterlimit:10;stroke-dasharray:none"
           id="path7327"
           inkscape:connector-curvature="0" /><g
           id="g7329"
           style="stroke-width:0.75;stroke-miterlimit:10;stroke-dasharray:none"><path
             d="m 306.1,209.7 h -34 v 34 h 68.1 v -34 z"
             style="fill:none;stroke:#000000;stroke-width:0.75;stroke-linecap:butt;stroke-linejoin:round;stroke-miterlimit:10;stroke-dasharray:none;stroke-opacity:1"
             id="path7331"
             inkscape:connector-curvature="0" /></g><g
           id="g7333"
           style="stroke-width:0.75;stroke-miterlimit:10;stroke-dasharray:none"><text
             transform="matrix(1,0,0,-1,277.3,229.2)"
             style="font-variant:normal;font-weight:normal;font-size:12px;font-family:'Liberation Sans';-inkscape-font-specification:LiberationSans;writing-mode:lr-tb;fill:#000000;fill-opacity:1;fill-rule:nonzero;stroke:none;stroke-width:0.75;stroke-miterlimit:10;stroke-dasharray:none"
             id="text7337"><tspan
               x="0 8.0880003 11.988 18.780001 25.464001 32.147999 38.147999 41.532001 44.136002 50.82"
               y="0"
               sodipodi:role="line"
               id="tspan7335">Production</tspan></text>
</g><g
           id="g7339"
           style="stroke-width:0.75;stroke-miterlimit:10;stroke-dasharray:none"><text
             transform="matrix(1,0,0,-1,281.7,215.8)"
             style="font-variant:normal;font-weight:normal;font-size:12px;font-family:'Liberation Sans';-inkscape-font-specification:LiberationSans;writing-mode:lr-tb;fill:#000000;fill-opacity:1;fill-rule:nonzero;stroke:none;stroke-width:0.75;stroke-miterlimit:10;stroke-dasharray:none"
             id="text7343"><tspan
               x="0 6 12.792 22.691999 29.375999 36.060001 42.852001"
               y="0"
               sodipodi:role="line"
               id="tspan7341">company</tspan></text>
</g><path
           d="m 306.1,297.5 h -34 v 42.6 h 68.1 v -42.6 z"
           style="fill:#ffffff;fill-opacity:1;fill-rule:evenodd;stroke:none;stroke-width:0.75;stroke-miterlimit:10;stroke-dasharray:none"
           id="path7345"
           inkscape:connector-curvature="0" /><g
           id="g7347"
           style="stroke-width:0.75;stroke-miterlimit:10;stroke-dasharray:none"><path
             d="m 306.1,297.5 h -34 v 42.6 h 68.1 v -42.6 z"
             style="fill:none;stroke:#000000;stroke-width:0.75;stroke-linecap:butt;stroke-linejoin:round;stroke-miterlimit:10;stroke-dasharray:none;stroke-opacity:1"
             id="path7349"
             inkscape:connector-curvature="0" /></g><g
           id="g7351"
           style="stroke-width:0.75;stroke-miterlimit:10;stroke-dasharray:none"><text
             transform="matrix(1,0,0,-1,290.1,328)"
             style="font-variant:normal;font-weight:normal;font-size:12px;font-family:'Liberation Sans';-inkscape-font-specification:LiberationSans;writing-mode:lr-tb;fill:#000000;fill-opacity:1;fill-rule:nonzero;stroke:none;stroke-width:0.75;stroke-miterlimit:10;stroke-dasharray:none"
             id="text7355"><tspan
               x="0 9.9960003 16.68 22.68 25.284"
               y="0"
               sodipodi:role="line"
               id="tspan7353">Movie</tspan></text>
</g><g
           id="g7357"
           style="stroke-width:0.75;stroke-miterlimit:10;stroke-dasharray:none"><text
             transform="matrix(1,0,0,-1,278,314.6)"
             style="font-variant:normal;font-weight:normal;font-size:12px;font-family:'Liberation Sans';-inkscape-font-specification:LiberationSans;writing-mode:lr-tb;fill:#000000;fill-opacity:1;fill-rule:nonzero;stroke:none;stroke-width:0.75;stroke-miterlimit:10;stroke-dasharray:none"
             id="text7361"><tspan
               x="0 6.684 10.68 17.364 24.048 30.732 36.731998 40.116001 42.720001 49.403999"
               y="0"
               sodipodi:role="line"
               id="tspan7359">production</tspan></text>
</g><g
           id="g7363"
           style="stroke-width:0.75;stroke-miterlimit:10;stroke-dasharray:none"><text
             transform="matrix(1,0,0,-1,281.7,301.2)"
             style="font-variant:normal;font-weight:normal;font-size:12px;font-family:'Liberation Sans';-inkscape-font-specification:LiberationSans;writing-mode:lr-tb;fill:#000000;fill-opacity:1;fill-rule:nonzero;stroke:none;stroke-width:0.75;stroke-miterlimit:10;stroke-dasharray:none"
             id="text7367"><tspan
               x="0 6 12.684 22.68 29.364 36.048 42.731998"
               y="0"
               sodipodi:role="line"
               id="tspan7365">company</tspan></text>
</g><path
           d="m 306.1,258.5 v 2.2 19.8 0.6"
           style="fill:none;stroke:#000000;stroke-width:0.75;stroke-linecap:butt;stroke-linejoin:miter;stroke-miterlimit:10;stroke-dasharray:none;stroke-opacity:1"
           id="path7369"
           inkscape:connector-curvature="0" /><path
           d="m 310.1,255.1 v 0 c 0,-0.7 -0.1,-1.3 -0.5,-2 -0.4,-0.6 -0.8,-1.1 -1.5,-1.4 -0.6,-0.4 -1.2,-0.6 -2,-0.6 -0.7,0 -1.3,0.2 -1.9,0.6 -0.7,0.3 -1.1,0.8 -1.5,1.4 -0.4,0.7 -0.6,1.3 -0.6,2 0,0.8 0.2,1.4 0.6,2 0.4,0.6 0.8,1.1 1.5,1.5 0.6,0.3 1.2,0.5 1.9,0.5 0.8,0 1.4,-0.2 2,-0.5 0.7,-0.4 1.1,-0.9 1.5,-1.5 0.4,-0.6 0.5,-1.2 0.5,-2 z m -0.4,0 v 0 c 0,-0.6 -0.1,-1.2 -0.4,-1.8 -0.4,-0.5 -0.8,-1 -1.4,-1.3 -0.5,-0.3 -1.1,-0.5 -1.8,-0.5 -0.6,0 -1.2,0.2 -1.7,0.5 -0.6,0.3 -1,0.8 -1.4,1.3 -0.3,0.6 -0.5,1.2 -0.5,1.8 0,0.7 0.2,1.2 0.5,1.8 0.4,0.6 0.8,1 1.4,1.3 0.5,0.3 1.1,0.5 1.7,0.5 0.7,0 1.3,-0.2 1.8,-0.5 0.6,-0.3 1,-0.7 1.4,-1.3 0.3,-0.6 0.4,-1.1 0.4,-1.8 z m -3.6,-4 h -0.2 v -7.4 h 0.5 v 7.4 z m -0.2,-3.7 v 0.3 h -4 v -0.6 h 4 z m 0.5,0 v 0.3 h 4 v -0.6 h -4 z"
           style="fill:#000000;fill-opacity:1;fill-rule:evenodd;stroke:none;stroke-width:0.75;stroke-miterlimit:10;stroke-dasharray:none"
           id="path7371"
           inkscape:connector-curvature="0" /><path
           d="m 301.9,284.8 v 0 c 0,0.8 0.2,1.4 0.6,2.1 0.4,0.7 0.8,1.2 1.5,1.6 0.7,0.4 1.3,0.5 2.1,0.5 0.8,0 1.5,-0.1 2.2,-0.5 0.6,-0.4 1.1,-0.9 1.5,-1.6 0.4,-0.7 0.6,-1.3 0.6,-2.1 0,-0.8 -0.2,-1.5 -0.6,-2.1 -0.4,-0.7 -0.9,-1.2 -1.5,-1.6 -0.7,-0.4 -1.4,-0.6 -2.2,-0.6 -0.8,0 -1.4,0.2 -2.1,0.6 -0.7,0.4 -1.1,0.9 -1.5,1.6 -0.4,0.6 -0.6,1.3 -0.6,2.1 z m 0.4,0 v 0 c 0,0.7 0.2,1.3 0.5,1.9 0.4,0.6 0.8,1 1.4,1.4 0.6,0.3 1.2,0.5 1.9,0.5 0.8,0 1.3,-0.2 2,-0.5 0.6,-0.4 1,-0.8 1.4,-1.4 0.3,-0.6 0.5,-1.2 0.5,-1.9 0,-0.7 -0.2,-1.3 -0.5,-1.9 -0.4,-0.6 -0.8,-1.1 -1.4,-1.4 -0.7,-0.4 -1.2,-0.5 -2,-0.5 -0.7,0 -1.3,0.1 -1.9,0.5 -0.6,0.3 -1,0.8 -1.4,1.4 -0.3,0.6 -0.5,1.2 -0.5,1.9 z m 3.8,4.2 4.3,8 v 0.5 h -0.3 l -3.7,-6.7 v 6.7 h -0.5 v -6.7 l -3.7,6.7 h -0.3 V 297 Z"
           style="fill:#000000;fill-opacity:1;fill-rule:evenodd;stroke:none;stroke-width:0.75;stroke-miterlimit:10;stroke-dasharray:none"
           id="path7373"
           inkscape:connector-curvature="0" /><path
           d="m 297.6,421.6 v -2.2 l 8.5,-62.3 v -0.6"
           style="fill:none;stroke:#000000;stroke-width:0.75;stroke-linecap:butt;stroke-linejoin:miter;stroke-miterlimit:10;stroke-dasharray:none;stroke-opacity:1"
           id="path7375"
           inkscape:connector-curvature="0" /><path
           d="m 293.6,425 v 0 c 0,0.8 0.2,1.4 0.6,2 0.3,0.7 0.8,1.1 1.4,1.5 0.6,0.3 1.3,0.5 2,0.5 0.7,0 1.4,-0.2 2,-0.5 0.6,-0.4 1.1,-0.8 1.5,-1.5 0.3,-0.6 0.5,-1.2 0.5,-2 0,-0.7 -0.2,-1.3 -0.5,-2 -0.4,-0.6 -0.9,-1.1 -1.5,-1.4 -0.6,-0.4 -1.3,-0.6 -2,-0.6 -0.7,0 -1.4,0.2 -2,0.6 -0.6,0.3 -1.1,0.8 -1.4,1.4 -0.4,0.7 -0.6,1.3 -0.6,2 z m 0.4,0 v 0 c 0,0.7 0.2,1.2 0.5,1.8 0.3,0.6 0.8,1 1.3,1.3 0.6,0.4 1.2,0.5 1.8,0.5 0.7,0 1.2,-0.1 1.8,-0.5 0.6,-0.3 1,-0.7 1.3,-1.3 0.3,-0.6 0.5,-1.1 0.5,-1.8 0,-0.6 -0.2,-1.2 -0.5,-1.8 -0.3,-0.6 -0.7,-1 -1.3,-1.3 -0.6,-0.3 -1.1,-0.5 -1.8,-0.5 -0.6,0 -1.2,0.2 -1.8,0.5 -0.5,0.3 -1,0.7 -1.3,1.3 -0.3,0.6 -0.5,1.2 -0.5,1.8 z m 3.6,4 h 0.3 v 7.4 h -0.5 V 429 Z m 0.3,3.7 v -0.3 h 4 v 0.6 h -4 z m -0.5,0 v -0.3 h -4 v 0.6 h 4 z"
           style="fill:#000000;fill-opacity:1;fill-rule:evenodd;stroke:none;stroke-width:0.75;stroke-miterlimit:10;stroke-dasharray:none"
           id="path7377"
           inkscape:connector-curvature="0" /><path
           d="m 310.4,352.8 v 0 c 0,-0.8 -0.2,-1.4 -0.6,-2.1 -0.4,-0.7 -0.9,-1.2 -1.5,-1.6 -0.7,-0.4 -1.4,-0.5 -2.2,-0.5 -0.8,0 -1.4,0.1 -2.1,0.5 -0.7,0.4 -1.1,0.9 -1.5,1.6 -0.4,0.7 -0.6,1.3 -0.6,2.1 0,0.8 0.2,1.5 0.6,2.1 0.4,0.7 0.8,1.2 1.5,1.6 0.7,0.4 1.3,0.6 2.1,0.6 0.8,0 1.5,-0.2 2.2,-0.6 0.6,-0.4 1.1,-0.9 1.5,-1.6 0.4,-0.6 0.6,-1.3 0.6,-2.1 z m -0.4,0 v 0 c 0,-0.7 -0.2,-1.3 -0.5,-1.9 -0.4,-0.6 -0.8,-1 -1.4,-1.4 -0.7,-0.3 -1.2,-0.5 -2,-0.5 -0.7,0 -1.3,0.2 -1.9,0.5 -0.6,0.4 -1,0.8 -1.4,1.4 -0.3,0.6 -0.5,1.2 -0.5,1.9 0,0.7 0.2,1.3 0.5,1.9 0.4,0.6 0.8,1.1 1.4,1.4 0.6,0.4 1.2,0.6 1.9,0.6 0.8,0 1.3,-0.2 2,-0.6 0.6,-0.3 1,-0.8 1.4,-1.3 0.3,-0.7 0.5,-1.3 0.5,-2 z m -3.9,-4.2 -4.2,-7.9 v -0.6 h 0.3 l 3.7,6.7 v -6.7 h 0.5 v 6.7 l 3.7,-6.7 h 0.3 v 0.6 z"
           style="fill:#000000;fill-opacity:1;fill-rule:evenodd;stroke:none;stroke-width:0.75;stroke-miterlimit:10;stroke-dasharray:none"
           id="path7379"
           inkscape:connector-curvature="0" /></g></g></g></svg>