<?xml version="1.0" encoding="UTF-8" standalone="no"?>
<!-- Created with Inkscape (http://www.inkscape.org/) -->

<svg
   xmlns:dc="http://purl.org/dc/elements/1.1/"
   xmlns:cc="http://creativecommons.org/ns#"
   xmlns:rdf="http://www.w3.org/1999/02/22-rdf-syntax-ns#"
   xmlns:svg="http://www.w3.org/2000/svg"
   xmlns="http://www.w3.org/2000/svg"
   xmlns:sodipodi="http://sodipodi.sourceforge.net/DTD/sodipodi-0.dtd"
   xmlns:inkscape="http://www.inkscape.org/namespaces/inkscape"
   version="1.1"
   id="svg7019"
   xml:space="preserve"
   width="351"
   height="369.79999"
   viewBox="0 0 351 369.79998"
   sodipodi:docname="movies-erd-foreign-fragment.svg"
   inkscape:version="0.92.3 (2405546, 2018-03-11)"><metadata
     id="metadata7025"><rdf:RDF><cc:Work
         rdf:about=""><dc:format>image/svg+xml</dc:format><dc:type
           rdf:resource="http://purl.org/dc/dcmitype/StillImage" /><dc:title></dc:title></cc:Work></rdf:RDF></metadata><defs
     id="defs7023"><clipPath
       clipPathUnits="userSpaceOnUse"
       id="clipPath7035"><path
         d="M 0,0 H 595.2 V 841.8 H 0 Z"
         id="path7033"
         inkscape:connector-curvature="0"
         style="clip-rule:evenodd" /></clipPath></defs><sodipodi:namedview
     pagecolor="#ffffff"
     bordercolor="#666666"
     borderopacity="1"
     objecttolerance="10"
     gridtolerance="10"
     guidetolerance="10"
     inkscape:pageopacity="0"
     inkscape:pageshadow="2"
     inkscape:window-width="1920"
     inkscape:window-height="1137"
     id="namedview7021"
     showgrid="false"
     fit-margin-top="3"
     fit-margin-left="3"
     fit-margin-right="3"
     fit-margin-bottom="3"
     inkscape:zoom="1.5743441"
     inkscape:cx="334.23332"
     inkscape:cy="238.59792"
     inkscape:window-x="1200"
     inkscape:window-y="0"
     inkscape:window-maximized="1"
     inkscape:current-layer="g7031" /><g
     id="g7027"
     inkscape:groupmode="layer"
     inkscape:label="movies-erd"
     transform="matrix(1.3333333,0,0,-1.3333333,-75.833331,645.89998)"><g
       id="g7029"><g
         id="g7031"
         clip-path="url(#clipPath7035)"><path
           d="m 272.1,436.4 h -45.3 v 45.4 h 90.7 v -45.4 z"
           style="fill:#ffffff;fill-opacity:1;fill-rule:evenodd;stroke:none;stroke-width:0.75;stroke-miterlimit:10;stroke-dasharray:none"
           id="path7039"
           inkscape:connector-curvature="0" /><g
           id="g7041"
           style="stroke-width:0.75;stroke-miterlimit:10;stroke-dasharray:none"><path
             d="m 272.1,436.4 h -45.3 v 45.4 h 90.7 v -45.4 z"
             style="fill:none;stroke:#000000;stroke-width:0.75;stroke-linecap:butt;stroke-linejoin:round;stroke-miterlimit:10;stroke-dasharray:none;stroke-opacity:1"
             id="path7043"
             inkscape:connector-curvature="0" /></g><g
           id="g7045"
           style="stroke-width:0.75;stroke-miterlimit:10;stroke-dasharray:none"><text
   transform="matrix(1,0,0,-1,256.1,454.9)"
   style="font-variant:normal;font-weight:normal;font-size:12px;font-family:'Liberation Sans';-inkscape-font-specification:LiberationSans;writing-mode:lr-tb;fill:#000000;fill-opacity:1;fill-rule:nonzero;stroke:none;stroke-width:0.75;stroke-miterlimit:10;stroke-dasharray:none"
   id="text7049"><tspan
     x="0 9.9960003 16.68 22.68 25.284"
     y="0"
     sodipodi:role="line"
     id="tspan7047">Movie</tspan></text>

</g><path
           d="m 93.5,314.6 h -34 v 34 h 68.1 v -34 z"
           style="fill:#ffffff;fill-opacity:1;fill-rule:evenodd;stroke:none;stroke-width:0.75;stroke-miterlimit:10;stroke-dasharray:none"
           id="path7225"
           inkscape:connector-curvature="0" /><g
           id="g7227"
           style="stroke-width:0.75;stroke-miterlimit:10;stroke-dasharray:none"><path
             d="m 93.5,314.6 h -34 v 34 h 68.1 v -34 z"
             style="fill:none;stroke:#000000;stroke-width:0.75;stroke-linecap:butt;stroke-linejoin:round;stroke-miterlimit:10;stroke-dasharray:none;stroke-opacity:1"
             id="path7229"
             inkscape:connector-curvature="0" /></g><g
           id="g7231"
           style="stroke-width:0.75;stroke-miterlimit:10;stroke-dasharray:none"><text
   transform="matrix(1,0,0,-1,73.1,334.1)"
   style="font-variant:normal;font-weight:normal;font-size:12px;font-family:'Liberation Sans';-inkscape-font-specification:LiberationSans;writing-mode:lr-tb;fill:#000000;fill-opacity:1;fill-rule:nonzero;stroke:none;stroke-width:0.75;stroke-miterlimit:10;stroke-dasharray:none"
   id="text7235"><tspan
     x="0 7.9920001 14.676 21.468 27.372 34.164001"
     y="0"
     sodipodi:role="line"
     id="tspan7233">Spoken</tspan></text>

</g><g
           id="g7237"
           style="stroke-width:0.75;stroke-miterlimit:10;stroke-dasharray:none"><text
   transform="matrix(1,0,0,-1,68.7,320.7)"
   style="font-variant:normal;font-weight:normal;font-size:12px;font-family:'Liberation Sans';-inkscape-font-specification:LiberationSans;writing-mode:lr-tb;fill:#000000;fill-opacity:1;fill-rule:nonzero;stroke:none;stroke-width:0.75;stroke-miterlimit:10;stroke-dasharray:none"
   id="text7241"><tspan
     x="0 2.6040001 9.3959999 16.08 22.764 29.448 36.132 42.924"
     y="0"
     sodipodi:role="line"
     id="tspan7239">language</tspan></text>

</g><path
           d="m 93.5,402.4 h -34 v 34 h 68.1 v -34 z"
           style="fill:#ffffff;fill-opacity:1;fill-rule:evenodd;stroke:none;stroke-width:0.75;stroke-miterlimit:10;stroke-dasharray:none"
           id="path7243"
           inkscape:connector-curvature="0" /><g
           id="g7245"
           style="stroke-width:0.75;stroke-miterlimit:10;stroke-dasharray:none"><path
             d="m 93.5,402.4 h -34 v 34 h 68.1 v -34 z"
             style="fill:none;stroke:#000000;stroke-width:0.75;stroke-linecap:butt;stroke-linejoin:round;stroke-miterlimit:10;stroke-dasharray:none;stroke-opacity:1"
             id="path7247"
             inkscape:connector-curvature="0" /></g><g
           id="g7249"
           style="stroke-width:0.75;stroke-miterlimit:10;stroke-dasharray:none"><text
   transform="matrix(1,0,0,-1,77.5,422)"
   style="font-variant:normal;font-weight:normal;font-size:12px;font-family:'Liberation Sans';-inkscape-font-specification:LiberationSans;writing-mode:lr-tb;fill:#000000;fill-opacity:1;fill-rule:nonzero;stroke:none;stroke-width:0.75;stroke-miterlimit:10;stroke-dasharray:none"
   id="text7253"><tspan
     x="0 9.9960003 16.68 22.68 25.284"
     y="0"
     sodipodi:role="line"
     id="tspan7251">Movie</tspan></text>

</g><g
           id="g7255"
           style="stroke-width:0.75;stroke-miterlimit:10;stroke-dasharray:none"><text
   transform="matrix(1,0,0,-1,68.7,408.5)"
   style="font-variant:normal;font-weight:normal;font-size:12px;font-family:'Liberation Sans';-inkscape-font-specification:LiberationSans;writing-mode:lr-tb;fill:#000000;fill-opacity:1;fill-rule:nonzero;stroke:none;stroke-width:0.75;stroke-miterlimit:10;stroke-dasharray:none"
   id="text7259"><tspan
     x="0 2.6040001 9.3959999 16.08 22.764 29.448 36.132 42.924"
     y="0"
     sodipodi:role="line"
     id="tspan7257">language</tspan></text>

</g><path
           d="m 93.5,363.4 v 2.2 19.8 0.6"
           style="fill:none;stroke:#000000;stroke-width:0.75;stroke-linecap:butt;stroke-linejoin:miter;stroke-miterlimit:10;stroke-dasharray:none;stroke-opacity:1"
           id="path7261"
           inkscape:connector-curvature="0" /><path
           d="m 97.5,360 v 0 c 0,-0.7 -0.1,-1.4 -0.5,-2 -0.4,-0.6 -0.8,-1.1 -1.5,-1.5 -0.6,-0.3 -1.2,-0.5 -2,-0.5 -0.7,0 -1.3,0.2 -1.9,0.5 -0.7,0.4 -1.1,0.9 -1.5,1.5 -0.4,0.6 -0.6,1.3 -0.6,2 0,0.7 0.2,1.4 0.6,2 0.4,0.6 0.8,1.1 1.5,1.5 0.6,0.3 1.2,0.5 1.9,0.5 0.8,0 1.4,-0.2 2,-0.5 0.7,-0.4 1.1,-0.9 1.5,-1.5 0.4,-0.6 0.5,-1.3 0.5,-2 z m -0.4,0 v 0 c 0,-0.7 -0.1,-1.2 -0.4,-1.8 -0.4,-0.6 -0.8,-1 -1.4,-1.3 -0.5,-0.3 -1.1,-0.5 -1.8,-0.5 -0.6,0 -1.2,0.2 -1.7,0.5 -0.6,0.3 -1,0.7 -1.4,1.3 -0.3,0.6 -0.5,1.1 -0.5,1.8 0,0.6 0.2,1.2 0.5,1.8 0.4,0.6 0.8,1 1.4,1.3 0.5,0.3 1.1,0.5 1.7,0.5 0.7,0 1.3,-0.2 1.8,-0.5 0.6,-0.3 1,-0.7 1.4,-1.3 0.3,-0.6 0.4,-1.2 0.4,-1.8 z m -3.6,-4 h -0.2 v -7.4 h 0.5 v 7.4 z m -0.2,-3.7 v 0.3 h -4 V 352 h 4 z m 0.5,0 v 0.3 h 4 V 352 h -4 z"
           style="fill:#000000;fill-opacity:1;fill-rule:evenodd;stroke:none;stroke-width:0.75;stroke-miterlimit:10;stroke-dasharray:none"
           id="path7263"
           inkscape:connector-curvature="0" /><path
           d="m 89.3,389.7 v 0 c 0,0.8 0.2,1.4 0.6,2.1 0.4,0.7 0.8,1.2 1.5,1.6 0.7,0.4 1.3,0.5 2.1,0.5 0.8,0 1.5,-0.1 2.2,-0.5 0.6,-0.4 1.1,-0.9 1.5,-1.6 0.4,-0.7 0.6,-1.3 0.6,-2.1 0,-0.8 -0.2,-1.5 -0.6,-2.2 -0.4,-0.6 -0.9,-1.1 -1.5,-1.5 -0.7,-0.4 -1.4,-0.6 -2.2,-0.6 -0.8,0 -1.4,0.2 -2.1,0.6 -0.7,0.4 -1.1,0.9 -1.5,1.5 -0.4,0.7 -0.6,1.4 -0.6,2.2 z m 0.4,0 v 0 c 0,0.7 0.2,1.3 0.5,1.9 0.4,0.6 0.8,1 1.4,1.4 0.6,0.3 1.2,0.5 1.9,0.5 0.8,0 1.3,-0.2 2,-0.5 0.6,-0.4 1,-0.8 1.4,-1.4 0.3,-0.6 0.5,-1.2 0.5,-1.9 0,-0.7 -0.2,-1.3 -0.5,-2 -0.4,-0.5 -0.8,-1 -1.4,-1.3 -0.7,-0.4 -1.2,-0.6 -2,-0.6 -0.7,0 -1.3,0.2 -1.9,0.6 -0.6,0.3 -1,0.8 -1.4,1.3 -0.3,0.7 -0.5,1.3 -0.5,2 z m 3.8,4.2 4.3,7.9 v 0.6 h -0.3 l -3.7,-6.7 v 6.7 h -0.5 v -6.7 l -3.7,6.7 h -0.3 v -0.6 z"
           style="fill:#000000;fill-opacity:1;fill-rule:evenodd;stroke:none;stroke-width:0.75;stroke-miterlimit:10;stroke-dasharray:none"
           id="path7265"
           inkscape:connector-curvature="0" /><path
           d="m 211.9,444 h -2.2 L 144.6,419.4 H 144"
           style="fill:none;stroke:#000000;stroke-width:0.75;stroke-linecap:butt;stroke-linejoin:miter;stroke-miterlimit:10;stroke-dasharray:none;stroke-opacity:1"
           id="path7267"
           inkscape:connector-curvature="0" /><path
           d="m 215.3,448 v 0 c 0.8,0 1.4,-0.2 2,-0.5 0.7,-0.4 1.1,-0.8 1.5,-1.5 0.4,-0.6 0.5,-1.2 0.5,-2 0,-0.7 -0.1,-1.3 -0.5,-2 -0.4,-0.6 -0.8,-1.1 -1.5,-1.4 -0.6,-0.4 -1.2,-0.6 -2,-0.6 -0.7,0 -1.3,0.2 -1.9,0.6 -0.7,0.3 -1.1,0.8 -1.5,1.4 -0.4,0.7 -0.5,1.3 -0.5,2 0,0.8 0.1,1.4 0.5,2 0.4,0.7 0.8,1.1 1.4,1.5 0.7,0.3 1.3,0.5 2,0.5 z m 0,-0.4 v 0 c 0.7,0 1.3,-0.2 1.8,-0.5 0.6,-0.3 1,-0.7 1.3,-1.3 0.4,-0.6 0.5,-1.1 0.5,-1.8 0,-0.6 -0.1,-1.2 -0.5,-1.8 -0.3,-0.5 -0.7,-1 -1.3,-1.3 -0.5,-0.3 -1.1,-0.5 -1.8,-0.5 -0.6,0 -1.2,0.2 -1.7,0.5 -0.6,0.3 -1,0.8 -1.4,1.3 -0.3,0.6 -0.5,1.2 -0.5,1.8 0,0.7 0.2,1.2 0.5,1.8 0.4,0.6 0.8,1 1.4,1.3 0.5,0.3 1.1,0.5 1.7,0.5 z m 4,-3.6 v -0.2 h 7.5 v 0.5 h -7.5 z m 3.8,-0.2 h -0.3 v -4 h 0.5 v 4 z m 0,0.5 h -0.3 v 4 h 0.5 v -4 z"
           style="fill:#000000;fill-opacity:1;fill-rule:evenodd;stroke:none;stroke-width:0.75;stroke-miterlimit:10;stroke-dasharray:none"
           id="path7269"
           inkscape:connector-curvature="0" /><path
           d="m 140.3,415.2 v 0 c -0.8,0 -1.4,0.2 -2.1,0.6 -0.7,0.3 -1.2,0.8 -1.6,1.5 -0.4,0.7 -0.5,1.3 -0.5,2.1 0,0.8 0.1,1.5 0.5,2.2 0.4,0.6 0.9,1.1 1.6,1.5 0.7,0.4 1.3,0.6 2.1,0.6 0.8,0 1.5,-0.2 2.1,-0.6 0.7,-0.4 1.2,-0.9 1.6,-1.5 0.4,-0.7 0.6,-1.4 0.6,-2.2 0,-0.8 -0.2,-1.4 -0.6,-2.1 -0.4,-0.7 -0.9,-1.2 -1.6,-1.5 -0.6,-0.4 -1.3,-0.6 -2.1,-0.6 z m 0,0.4 v 0 c -0.7,0 -1.3,0.2 -1.9,0.5 -0.6,0.4 -1,0.8 -1.4,1.4 -0.3,0.6 -0.5,1.2 -0.5,1.9 0,0.7 0.2,1.3 0.5,1.9 0.4,0.7 0.8,1.1 1.4,1.5 0.6,0.3 1.2,0.5 1.9,0.5 0.7,0 1.3,-0.2 1.9,-0.5 0.6,-0.4 1.1,-0.8 1.4,-1.5 0.4,-0.6 0.5,-1.2 0.5,-1.9 0,-0.7 -0.1,-1.3 -0.5,-1.9 -0.3,-0.6 -0.8,-1 -1.4,-1.4 -0.6,-0.3 -1.2,-0.5 -1.9,-0.5 z m -4.2,3.8 -7.9,4.3 h -0.6 v -0.3 l 6.7,-3.7 h -6.7 v -0.5 h 6.7 l -6.7,-3.7 v -0.3 h 0.6 z"
           style="fill:#000000;fill-opacity:1;fill-rule:evenodd;stroke:none;stroke-width:0.75;stroke-miterlimit:10;stroke-dasharray:none"
           id="path7271"
           inkscape:connector-curvature="0" /><path
           d="m 201.3,209.7 h -34.1 v 34 h 68.1 v -34 z"
           style="fill:#ffffff;fill-opacity:1;fill-rule:evenodd;stroke:none;stroke-width:0.75;stroke-miterlimit:10;stroke-dasharray:none"
           id="path7273"
           inkscape:connector-curvature="0" /><g
           id="g7275"
           style="stroke-width:0.75;stroke-miterlimit:10;stroke-dasharray:none"><path
             d="m 201.3,209.7 h -34.1 v 34 h 68.1 v -34 z"
             style="fill:none;stroke:#000000;stroke-width:0.75;stroke-linecap:butt;stroke-linejoin:round;stroke-miterlimit:10;stroke-dasharray:none;stroke-opacity:1"
             id="path7277"
             inkscape:connector-curvature="0" /></g><g
           id="g7279"
           style="stroke-width:0.75;stroke-miterlimit:10;stroke-dasharray:none"><text
   transform="matrix(1,0,0,-1,172.5,229.2)"
   style="font-variant:normal;font-weight:normal;font-size:12px;font-family:'Liberation Sans';-inkscape-font-specification:LiberationSans;writing-mode:lr-tb;fill:#000000;fill-opacity:1;fill-rule:nonzero;stroke:none;stroke-width:0.75;stroke-miterlimit:10;stroke-dasharray:none"
   id="text7283"><tspan
     x="0 7.9920001 11.988 18.672001 25.356001 32.040001 38.040001 41.424 44.028 50.712002"
     y="0"
     sodipodi:role="line"
     id="tspan7281">Production</tspan></text>

</g><g
           id="g7285"
           style="stroke-width:0.75;stroke-miterlimit:10;stroke-dasharray:none"><text
   transform="matrix(1,0,0,-1,181.5,215.8)"
   style="font-variant:normal;font-weight:normal;font-size:12px;font-family:'Liberation Sans';-inkscape-font-specification:LiberationSans;writing-mode:lr-tb;fill:#000000;fill-opacity:1;fill-rule:nonzero;stroke:none;stroke-width:0.75;stroke-miterlimit:10;stroke-dasharray:none"
   id="text7289"><tspan
     x="0 6 12.792 19.476 26.16 29.459999 33.456001"
     y="0"
     sodipodi:role="line"
     id="tspan7287">country</tspan></text>

</g><path
           d="m 201.3,297.5 h -34.1 v 42.6 h 68.1 v -42.6 z"
           style="fill:#ffffff;fill-opacity:1;fill-rule:evenodd;stroke:none;stroke-width:0.75;stroke-miterlimit:10;stroke-dasharray:none"
           id="path7291"
           inkscape:connector-curvature="0" /><g
           id="g7293"
           style="stroke-width:0.75;stroke-miterlimit:10;stroke-dasharray:none"><path
             d="m 201.3,297.5 h -34.1 v 42.6 h 68.1 v -42.6 z"
             style="fill:none;stroke:#000000;stroke-width:0.75;stroke-linecap:butt;stroke-linejoin:round;stroke-miterlimit:10;stroke-dasharray:none;stroke-opacity:1"
             id="path7295"
             inkscape:connector-curvature="0" /></g><g
           id="g7297"
           style="stroke-width:0.75;stroke-miterlimit:10;stroke-dasharray:none"><text
   transform="matrix(1,0,0,-1,185.2,328)"
   style="font-variant:normal;font-weight:normal;font-size:12px;font-family:'Liberation Sans';-inkscape-font-specification:LiberationSans;writing-mode:lr-tb;fill:#000000;fill-opacity:1;fill-rule:nonzero;stroke:none;stroke-width:0.75;stroke-miterlimit:10;stroke-dasharray:none"
   id="text7301"><tspan
     x="0 9.9960003 16.68 22.68 25.368"
     y="0"
     sodipodi:role="line"
     id="tspan7299">Movie</tspan></text>

</g><g
           id="g7303"
           style="stroke-width:0.75;stroke-miterlimit:10;stroke-dasharray:none"><text
   transform="matrix(1,0,0,-1,173.1,314.6)"
   style="font-variant:normal;font-weight:normal;font-size:12px;font-family:'Liberation Sans';-inkscape-font-specification:LiberationSans;writing-mode:lr-tb;fill:#000000;fill-opacity:1;fill-rule:nonzero;stroke:none;stroke-width:0.75;stroke-miterlimit:10;stroke-dasharray:none"
   id="text7307"><tspan
     x="0 6.684 10.68 17.364 24.048 30.84 36.84 40.139999 42.743999 49.535999"
     y="0"
     sodipodi:role="line"
     id="tspan7305">production</tspan></text>

</g><g
           id="g7309"
           style="stroke-width:0.75;stroke-miterlimit:10;stroke-dasharray:none"><text
   transform="matrix(1,0,0,-1,181.5,301.2)"
   style="font-variant:normal;font-weight:normal;font-size:12px;font-family:'Liberation Sans';-inkscape-font-specification:LiberationSans;writing-mode:lr-tb;fill:#000000;fill-opacity:1;fill-rule:nonzero;stroke:none;stroke-width:0.75;stroke-miterlimit:10;stroke-dasharray:none"
   id="text7313"><tspan
     x="0 6 12.684 19.368 26.16 29.459999 33.456001"
     y="0"
     sodipodi:role="line"
     id="tspan7311">country</tspan></text>

</g><path
           d="m 201.3,258.5 v 2.2 19.8 0.6"
           style="fill:none;stroke:#000000;stroke-width:0.75;stroke-linecap:butt;stroke-linejoin:miter;stroke-miterlimit:10;stroke-dasharray:none;stroke-opacity:1"
           id="path7315"
           inkscape:connector-curvature="0" /><path
           d="m 205.3,255.1 v 0 c 0,-0.7 -0.2,-1.3 -0.6,-2 -0.4,-0.6 -0.8,-1.1 -1.5,-1.4 -0.6,-0.4 -1.2,-0.6 -1.9,-0.6 -0.8,0 -1.4,0.2 -2,0.6 -0.7,0.3 -1.1,0.8 -1.5,1.4 -0.4,0.7 -0.5,1.3 -0.5,2 0,0.8 0.1,1.4 0.5,2 0.4,0.6 0.8,1.1 1.5,1.5 0.6,0.3 1.2,0.5 2,0.5 0.7,0 1.3,-0.2 1.9,-0.5 0.7,-0.4 1.1,-0.9 1.5,-1.5 0.4,-0.6 0.6,-1.2 0.6,-2 z m -0.4,0 v 0 c 0,-0.6 -0.2,-1.2 -0.5,-1.8 -0.4,-0.5 -0.8,-1 -1.4,-1.3 -0.5,-0.3 -1.1,-0.5 -1.7,-0.5 -0.7,0 -1.3,0.2 -1.8,0.5 -0.6,0.3 -1,0.8 -1.4,1.3 -0.3,0.6 -0.4,1.2 -0.4,1.8 0,0.7 0.1,1.2 0.4,1.8 0.4,0.6 0.8,1 1.4,1.3 0.5,0.3 1.1,0.5 1.8,0.5 0.6,0 1.2,-0.2 1.7,-0.5 0.6,-0.3 1,-0.7 1.4,-1.3 0.3,-0.6 0.5,-1.1 0.5,-1.8 z m -3.6,-4 H 201 v -7.4 h 0.5 v 7.4 z m -0.3,-3.7 v 0.3 h -4 v -0.6 h 4 z m 0.5,0 v 0.3 h 4 v -0.6 h -4 z"
           style="fill:#000000;fill-opacity:1;fill-rule:evenodd;stroke:none;stroke-width:0.75;stroke-miterlimit:10;stroke-dasharray:none"
           id="path7317"
           inkscape:connector-curvature="0" /><path
           d="m 197,284.8 v 0 c 0,0.8 0.2,1.4 0.6,2.1 0.4,0.7 0.9,1.2 1.5,1.6 0.7,0.4 1.4,0.5 2.2,0.5 0.8,0 1.4,-0.1 2.1,-0.5 0.7,-0.4 1.1,-0.9 1.5,-1.6 0.4,-0.7 0.6,-1.3 0.6,-2.1 0,-0.8 -0.2,-1.5 -0.6,-2.1 -0.4,-0.7 -0.8,-1.2 -1.5,-1.6 -0.7,-0.4 -1.3,-0.6 -2.1,-0.6 -0.8,0 -1.5,0.2 -2.2,0.6 -0.6,0.4 -1.1,0.9 -1.5,1.6 -0.4,0.6 -0.6,1.3 -0.6,2.1 z m 0.4,0 v 0 c 0,0.7 0.2,1.3 0.5,1.9 0.4,0.6 0.8,1 1.5,1.4 0.6,0.3 1.2,0.5 1.9,0.5 0.7,0 1.3,-0.2 1.9,-0.5 0.6,-0.4 1,-0.8 1.4,-1.4 0.3,-0.6 0.5,-1.2 0.5,-1.9 0,-0.7 -0.2,-1.3 -0.5,-1.9 -0.4,-0.6 -0.8,-1.1 -1.4,-1.4 -0.6,-0.4 -1.2,-0.5 -1.9,-0.5 -0.7,0 -1.3,0.1 -1.9,0.5 -0.7,0.3 -1.1,0.8 -1.5,1.4 -0.3,0.6 -0.5,1.2 -0.5,1.9 z m 3.9,4.2 4.2,8 v 0.5 h -0.3 l -3.7,-6.7 v 6.7 H 201 v -6.7 l -3.7,6.7 H 197 V 297 Z"
           style="fill:#000000;fill-opacity:1;fill-rule:evenodd;stroke:none;stroke-width:0.75;stroke-miterlimit:10;stroke-dasharray:none"
           id="path7319"
           inkscape:connector-curvature="0" /><path
           d="m 253.2,421.6 v -2.2 l -51.9,-62.3 v -0.6"
           style="fill:none;stroke:#000000;stroke-width:0.75;stroke-linecap:butt;stroke-linejoin:miter;stroke-miterlimit:10;stroke-dasharray:none;stroke-opacity:1"
           id="path7321"
           inkscape:connector-curvature="0" /><path
           d="m 249.3,425 v 0 c 0,0.8 0.1,1.4 0.5,2 0.4,0.7 0.8,1.1 1.5,1.5 0.6,0.3 1.2,0.5 1.9,0.5 0.8,0 1.4,-0.2 2,-0.5 0.7,-0.4 1.1,-0.8 1.5,-1.5 0.4,-0.6 0.5,-1.2 0.5,-2 0,-0.7 -0.1,-1.3 -0.5,-2 -0.4,-0.6 -0.8,-1.1 -1.5,-1.4 -0.6,-0.4 -1.2,-0.6 -2,-0.6 -0.7,0 -1.3,0.2 -1.9,0.6 -0.7,0.3 -1.1,0.8 -1.5,1.4 -0.4,0.7 -0.5,1.3 -0.5,2 z m 0.3,0 v 0 c 0,0.7 0.2,1.2 0.5,1.8 0.4,0.6 0.8,1 1.4,1.3 0.5,0.4 1.1,0.5 1.7,0.5 0.7,0 1.3,-0.1 1.8,-0.5 0.6,-0.3 1,-0.7 1.4,-1.3 0.3,-0.6 0.4,-1.1 0.4,-1.8 0,-0.6 -0.1,-1.2 -0.4,-1.8 -0.4,-0.6 -0.8,-1 -1.4,-1.3 -0.5,-0.3 -1.1,-0.5 -1.8,-0.5 -0.6,0 -1.2,0.2 -1.7,0.5 -0.6,0.3 -1,0.7 -1.4,1.3 -0.3,0.6 -0.5,1.2 -0.5,1.8 z m 3.6,4 h 0.3 v 7.4 H 253 V 429 Z m 0.3,3.7 v -0.3 h 4 v 0.6 h -4 z m -0.5,0 v -0.3 h -4 v 0.6 h 4 z"
           style="fill:#000000;fill-opacity:1;fill-rule:evenodd;stroke:none;stroke-width:0.75;stroke-miterlimit:10;stroke-dasharray:none"
           id="path7323"
           inkscape:connector-curvature="0" /><path
           d="m 205.5,352.8 v 0 c 0,-0.8 -0.2,-1.4 -0.6,-2.1 -0.4,-0.7 -0.8,-1.2 -1.5,-1.6 -0.7,-0.4 -1.3,-0.5 -2.1,-0.5 -0.8,0 -1.5,0.1 -2.2,0.5 -0.6,0.4 -1.1,0.9 -1.5,1.6 -0.4,0.7 -0.6,1.3 -0.6,2.1 0,0.8 0.2,1.5 0.6,2.1 0.4,0.7 0.9,1.2 1.5,1.6 0.7,0.4 1.4,0.6 2.2,0.6 0.8,0 1.4,-0.2 2.1,-0.6 0.7,-0.4 1.1,-0.9 1.5,-1.6 0.4,-0.6 0.6,-1.3 0.6,-2.1 z m -0.4,0 v 0 c 0,-0.7 -0.2,-1.3 -0.5,-1.9 -0.4,-0.6 -0.8,-1 -1.4,-1.4 -0.6,-0.3 -1.2,-0.5 -1.9,-0.5 -0.7,0 -1.3,0.2 -1.9,0.5 -0.7,0.4 -1.1,0.8 -1.5,1.4 -0.3,0.6 -0.5,1.2 -0.5,1.9 0,0.7 0.2,1.3 0.5,1.9 0.4,0.6 0.8,1.1 1.5,1.4 0.6,0.4 1.2,0.6 1.9,0.6 0.7,0 1.3,-0.2 1.9,-0.6 0.6,-0.3 1,-0.8 1.4,-1.3 0.3,-0.7 0.5,-1.3 0.5,-2 z m -3.8,-4.2 -4.3,-7.9 v -0.6 h 0.3 l 3.7,6.7 v -6.7 h 0.5 v 6.7 l 3.7,-6.7 h 0.3 v 0.6 z"
           style="fill:#000000;fill-opacity:1;fill-rule:evenodd;stroke:none;stroke-width:0.75;stroke-miterlimit:10;stroke-dasharray:none"
           id="path7325"
           inkscape:connector-curvature="0" /></g></g></g></svg>